<?xml version="1.0" standalone="no"?>
<!DOCTYPE svg PUBLIC "-//W3C//DTD SVG 20010904//EN"
 "http://www.w3.org/TR/2001/REC-SVG-20010904/DTD/svg10.dtd">
<svg version="1.0" xmlns="http://www.w3.org/2000/svg"
 width="1024.000000pt" height="1024.000000pt" viewBox="0 0 1024.000000 1024.000000"
 preserveAspectRatio="xMidYMid meet">
 
<g transform="translate(0.000000,1024.000000) scale(0.100000,-0.100000)"
fill="#3807ff" stroke="#c7f800">
<path d="M0 9190 c0 -900 2 -1050 14 -1057 8 -4 48 -40 88 -79 81 -79 142
-124 168 -124 10 0 23 -7 30 -15 11 -13 8 -13 -29 0 -27 9 -41 10 -41 3 0 -6
-13 -8 -35 -4 -27 5 -35 4 -35 -8 0 -18 15 -28 44 -30 17 -1 21 -7 20 -32 -1
-27 1 -31 18 -26 15 4 41 -16 104 -79 76 -75 84 -81 84 -58 0 15 7 32 15 39
22 18 19 26 -25 66 -22 20 -40 44 -40 54 0 15 6 16 53 8 73 -12 167 4 136 23
-11 6 -10 9 3 14 15 6 14 11 -4 53 -12 26 -27 51 -34 55 -8 4 -21 22 -30 40
-9 18 -60 91 -114 162 -53 72 -114 157 -135 190 -21 33 -56 86 -77 118 -64 95
-12 49 173 -151 268 -290 299 -321 336 -333 29 -9 37 -8 54 7 10 9 19 21 19
26 0 5 7 24 14 43 11 25 19 33 30 29 25 -10 19 -45 -19 -102 -39 -57 -39 -64
1 -29 35 31 85 47 102 34 10 -8 16 -7 22 2 6 11 12 11 31 -3 42 -29 62 -21 92
37 19 36 26 44 22 23 -3 -15 -9 -41 -12 -57 -4 -24 -2 -29 14 -29 10 0 24 -5
31 -12 8 -8 18 -9 35 -1 39 18 52 0 22 -29 -24 -25 -24 -25 -6 -42 11 -10 17
-25 14 -33 -5 -14 -3 -14 18 0 31 21 109 48 109 39 -1 -13 -78 -72 -95 -72
-12 0 -15 -5 -9 -22 14 -46 24 -94 24 -127 0 -28 -2 -32 -14 -21 -11 8 -20 9
-33 1 -10 -6 -13 -11 -8 -11 17 0 78 -41 71 -47 -3 -3 -15 2 -26 12 -11 10
-23 16 -26 12 -10 -9 43 -39 78 -43 18 -2 49 -6 68 -9 l35 -4 -32 11 c-34 11
-41 22 -23 33 5 3 10 17 10 31 0 28 3 29 35 8 15 -10 25 -26 25 -39 0 -16 8
-26 23 -30 40 -12 77 -30 77 -37 0 -7 -15 -12 -65 -21 -14 -2 -8 -7 22 -17 48
-15 116 -78 202 -185 31 -38 59 -71 64 -73 4 -2 7 -9 7 -14 0 -6 -28 15 -63
48 -160 150 -236 214 -257 214 -19 0 19 -39 55 -58 36 -18 97 -74 132 -122
l26 -35 -34 30 c-18 17 -37 35 -41 40 -5 6 -8 5 -8 -2 0 -7 73 -85 161 -174
131 -131 159 -163 146 -171 -12 -6 -27 1 -59 29 -93 84 -191 187 -203 217 -14
33 -158 186 -215 228 -19 15 -50 40 -68 57 -39 36 -51 40 -28 9 42 -58 64 -97
86 -151 18 -47 37 -71 98 -125 122 -108 176 -162 169 -169 -4 -3 -24 5 -44 19
-21 13 -64 41 -95 61 -59 38 -96 84 -152 189 -86 161 -87 163 -143 166 -45 3
-52 0 -68 -24 -18 -27 -18 -28 3 -42 26 -17 28 -37 6 -59 -13 -14 -17 -14 -25
-2 -12 19 -11 39 2 39 5 0 8 4 5 9 -3 5 -15 7 -25 4 -17 -4 -18 -9 -10 -31 6
-15 14 -29 19 -32 14 -9 24 -60 11 -60 -15 0 -13 -40 4 -70 8 -14 14 -41 14
-60 l0 -35 -16 30 c-10 17 -18 38 -20 48 -5 29 -33 77 -44 77 -6 0 -9 -6 -6
-13 3 -8 1 -20 -3 -28 -7 -11 -13 -10 -30 6 -22 20 -22 20 -19 0 2 -11 0 -26
-5 -33 -4 -7 -5 -16 -1 -20 3 -4 11 1 16 11 6 9 17 17 24 17 20 0 20 -59 0
-66 -10 -4 -15 -20 -15 -51 0 -36 3 -44 15 -39 8 3 15 1 15 -5 0 -5 -7 -12
-15 -15 -9 -4 -15 -20 -16 -38 -1 -29 -2 -29 -10 9 -4 22 -8 61 -8 88 -1 26
-4 47 -8 48 -5 0 -24 2 -43 4 -19 3 -52 2 -72 -1 -29 -4 -36 -9 -32 -22 5 -15
4 -15 -9 1 -22 26 -30 21 -24 -16 3 -18 3 -44 0 -59 l-5 -25 -24 22 c-13 12
-24 27 -24 34 0 6 -7 11 -15 11 -25 0 -17 27 11 34 21 6 24 9 14 21 -7 8 -19
15 -26 15 -8 0 -14 5 -14 10 0 6 6 10 14 10 8 0 18 6 22 13 4 6 4 9 -1 5 -4
-4 -13 -3 -20 2 -8 7 -21 -4 -44 -36 -18 -26 -37 -44 -45 -41 -23 9 -117 -43
-286 -158 -188 -127 -217 -144 -204 -123 4 7 18 21 30 31 13 10 78 65 146 123
68 57 129 109 136 115 6 5 12 21 12 34 0 13 11 36 24 52 36 43 46 68 46 113 0
25 4 39 10 35 16 -10 11 11 -6 26 -13 11 -21 7 -54 -27 -39 -39 -39 -39 -31
-96 8 -64 7 -65 -47 -46 -30 11 -35 11 -44 -6 -15 -27 -112 -136 -232 -261
l-105 -110 -1 -2502 c0 -1377 1 -2503 3 -2503 2 0 28 30 57 68 90 112 113 134
122 120 5 -9 8 -4 8 12 0 34 28 73 47 65 21 -8 43 13 43 40 0 16 -8 25 -25 29
-26 7 -35 36 -11 36 26 0 56 50 54 91 -1 22 -5 39 -10 39 -4 0 -8 6 -8 13 0 7
-24 51 -54 98 -29 46 -52 86 -50 88 2 2 20 -4 41 -14 42 -20 138 -24 156 -6 8
8 0 11 -33 11 -47 0 -63 7 -68 28 -1 8 11 12 35 13 31 0 34 2 18 9 -19 8 -19
9 3 9 24 1 30 16 10 24 -7 2 -10 7 -6 11 3 4 17 2 30 -5 33 -18 128 -39 128
-28 0 5 -4 9 -9 9 -12 0 -151 141 -151 154 0 6 16 -8 36 -32 20 -23 41 -42 48
-42 7 0 21 -9 30 -19 10 -11 40 -29 67 -41 44 -19 54 -20 86 -8 19 7 47 26 61
43 17 20 23 23 18 10 -18 -44 -18 -55 -3 -55 8 0 18 7 21 16 5 13 9 14 21 4 9
-7 17 -11 19 -9 2 2 6 67 10 143 4 77 9 142 11 145 3 2 5 -4 5 -13 0 -19 72
-234 88 -263 18 -32 194 -56 216 -30 6 8 43 56 83 108 39 52 92 117 118 144
45 49 45 49 -22 -55 -36 -58 -86 -130 -110 -160 -42 -54 -42 -55 -22 -70 12
-10 18 -22 14 -32 -4 -9 -2 -25 3 -34 8 -15 13 -11 37 26 27 43 73 89 89 90 4
0 1 -11 -8 -25 -9 -14 -23 -36 -32 -50 -21 -32 -2 -33 28 -3 13 13 27 23 33
23 31 3 115 66 115 88 0 15 70 92 146 161 72 65 74 67 83 44 8 -23 9 -22 30
12 11 19 33 64 47 100 41 103 45 110 41 77 -6 -40 5 -33 38 22 17 28 40 54 52
60 11 5 29 22 38 38 9 15 46 48 83 73 36 24 109 87 162 140 170 166 248 240
255 240 13 0 -31 -63 -65 -93 -45 -39 -101 -120 -144 -205 -53 -107 -52 -123
4 -42 73 106 205 238 238 238 14 0 31 7 37 16 7 8 15 13 18 9 12 -12 7 -35
-13 -61 -14 -18 -17 -28 -9 -32 15 -10 -3 -43 -39 -68 -15 -11 -56 -57 -92
-103 -71 -93 -69 -93 46 18 45 43 110 119 146 169 126 174 147 224 54 124 -56
-59 -60 -45 -17 62 15 40 31 85 35 100 3 16 10 28 14 28 4 0 32 -32 62 -71 30
-38 72 -80 93 -91 31 -18 37 -27 37 -55 0 -18 4 -33 9 -33 22 0 0 90 -34 140
-19 29 -35 57 -35 64 0 6 8 -2 19 -19 10 -16 31 -41 46 -55 22 -20 19 -13 -13
32 -23 31 -42 62 -42 67 0 5 -4 13 -10 16 -6 3 -7 -1 -4 -9 9 -24 -2 -19 -20
9 -28 43 -29 93 -1 130 28 36 31 47 11 39 -8 -3 -19 3 -25 14 -5 10 -136 139
-291 287 -155 147 -279 270 -276 273 3 3 27 -13 53 -34 27 -22 73 -57 103 -79
30 -22 98 -73 150 -115 98 -78 265 -203 311 -232 25 -16 28 -16 60 6 19 13 44
26 57 30 12 4 31 24 43 44 11 20 17 28 13 17 -24 -70 -12 -95 45 -95 41 0 94
24 143 65 79 65 247 165 278 165 4 0 12 -12 18 -26 7 -14 8 -23 2 -19 -28 17
-242 -154 -361 -289 -26 -30 -28 -37 -18 -62 l10 -29 22 30 c12 17 54 66 92
110 39 44 79 93 88 108 10 15 22 25 26 22 5 -2 14 2 21 9 11 14 84 56 96 56
11 0 -7 -53 -29 -84 -12 -18 -42 -50 -67 -72 -25 -21 -51 -48 -59 -59 -8 -11
-39 -45 -68 -75 -52 -53 -53 -55 -31 -64 108 -40 318 -187 336 -233 6 -16 18
-53 26 -83 19 -66 18 -65 79 -114 30 -23 57 -57 70 -85 12 -25 23 -49 25 -53
11 -22 -21 -1 -87 57 -41 36 -81 65 -89 65 -18 0 -82 66 -82 86 0 31 -70 91
-132 114 -35 12 -82 37 -106 55 -48 37 -79 36 -97 -3 -7 -16 -19 -22 -41 -22
-17 0 -37 -7 -44 -15 -7 -8 -18 -15 -24 -15 -24 0 -66 -61 -66 -97 0 -20 -4
-32 -10 -28 -6 4 -10 -6 -10 -24 0 -21 -7 -34 -21 -42 -29 -15 -39 -2 -41 54
-3 65 -15 59 -16 -8 0 -30 -3 -59 -7 -65 -14 -22 -25 -8 -25 34 0 64 -20 76
-69 42 -55 -38 -255 -230 -308 -295 -48 -59 -115 -120 -248 -223 -44 -35 -97
-78 -118 -97 -21 -18 -40 -31 -43 -28 -3 3 6 25 21 49 l26 43 -26 -30 c-14
-16 -37 -49 -51 -72 -23 -38 -58 -63 -70 -50 -7 6 7 57 35 125 30 76 5 63 -39
-20 -20 -37 -73 -107 -121 -159 -99 -107 -193 -218 -229 -272 -25 -37 -40 -47
-40 -27 0 26 46 95 117 176 43 49 92 107 109 129 37 47 88 134 83 140 -3 2
-57 -60 -121 -138 -127 -155 -124 -152 -218 -257 -75 -84 -110 -130 -110 -144
0 -5 -7 -18 -17 -28 -22 -24 -2 -23 25 2 20 19 40 12 27 -9 -3 -5 -1 -12 5
-16 5 -3 10 -1 10 4 0 6 5 11 10 11 6 0 10 -7 10 -15 0 -8 6 -12 15 -9 11 5
13 -1 10 -31 -7 -48 7 -71 52 -86 47 -15 96 -39 91 -45 -2 -2 -41 8 -86 22
-45 13 -97 24 -115 22 -18 -1 -38 2 -45 6 -15 9 -15 -4 -1 -41 8 -23 8 -26 -2
-15 -7 6 -20 12 -28 12 -9 0 1 -12 22 -27 20 -14 37 -30 37 -35 0 -9 79 -68
91 -68 11 0 0 31 -21 55 -33 38 -33 50 -1 20 18 -16 40 -44 49 -61 16 -28 164
-174 242 -237 31 -26 32 -27 5 -11 -16 10 -48 30 -69 46 -43 31 -88 40 -66 13
8 -9 8 -15 2 -15 -6 0 -13 9 -17 20 -7 23 -74 80 -123 104 -32 17 -35 17 -49
-1 -13 -16 -14 -16 -9 -1 4 13 -7 23 -42 41 -26 13 -50 24 -55 25 -53 6 -84
27 -79 53 1 4 -10 19 -23 34 -22 23 -27 24 -40 12 -8 -8 -17 -27 -21 -42 l-7
-28 -18 24 c-10 13 -19 31 -19 39 0 12 -3 11 -11 -2 -10 -18 -59 -25 -59 -9 0
12 -39 21 -45 10 -6 -9 14 -50 29 -61 6 -4 18 -2 27 3 14 7 19 3 27 -19 10
-26 10 -25 11 16 1 56 17 54 19 -3 1 -25 3 -49 3 -53 1 -4 0 -18 -1 -32 -1
-23 -2 -23 -13 8 l-12 33 -19 -31 c-15 -27 -20 -29 -33 -18 -13 10 -17 10 -20
1 -3 -7 -19 -13 -36 -13 -18 0 -48 -5 -67 -11 -57 -17 -111 -12 -129 13 -9 12
-28 34 -43 49 -16 15 -28 32 -28 37 0 6 -6 13 -12 15 -10 4 -9 8 2 16 12 8 11
10 -8 8 -16 -1 -22 -8 -23 -27 -1 -20 -2 -21 -6 -4 -2 12 -16 24 -36 30 -31 9
-32 11 -29 54 5 57 26 98 57 110 32 12 32 18 0 16 -14 0 -27 -7 -30 -14 -3 -8
-14 -10 -29 -6 -40 10 -98 -28 -129 -84 -15 -27 -24 -51 -21 -54 3 -3 -9 -16
-25 -28 -41 -28 -39 -40 7 -40 27 0 33 -3 22 -10 -8 -5 -10 -10 -5 -10 6 0 17
4 25 10 12 7 12 12 -4 29 -11 12 -17 21 -14 21 17 0 118 -52 118 -60 0 -16
-58 -37 -118 -42 -49 -5 -51 -4 -37 12 29 32 12 42 -21 12 -10 -10 -37 -25
-59 -34 -22 -8 -42 -22 -46 -29 -4 -8 -14 -30 -22 -49 -28 -62 -20 5 9 85 26
71 31 115 14 144 -7 14 -10 12 -18 -9 -10 -24 -24 -41 -164 -199 l-68 -76 0
-912 0 -913 385 0 c212 0 385 4 385 8 0 4 -16 6 -37 4 -29 -4 -35 -2 -30 11 3
10 -8 26 -35 47 -33 27 -39 36 -33 58 5 21 4 24 -8 14 -12 -10 -16 -7 -21 19
-9 49 -7 69 8 69 9 0 12 -7 9 -20 -3 -11 -1 -20 5 -20 6 0 13 -8 15 -17 3 -10
5 -4 6 13 0 16 8 39 16 50 13 17 14 12 10 -50 -5 -75 7 -115 15 -53 6 44 20
50 37 16 7 -13 13 -18 13 -11 0 9 7 11 23 6 12 -4 31 -7 42 -6 11 1 23 -4 27
-11 5 -8 8 -6 8 6 0 16 27 23 68 18 8 -1 19 3 27 9 9 7 15 8 20 1 4 -7 15 -5
31 6 22 14 27 14 35 2 5 -8 8 -24 6 -36 -2 -13 0 -23 4 -23 5 0 9 23 9 50 0
31 -4 50 -12 50 -16 0 -3 11 17 14 9 1 21 9 25 17 16 25 31 -5 33 -67 2 -52 0
-60 -20 -69 -13 -5 -23 -13 -23 -17 0 -5 -7 -8 -15 -8 -9 0 -18 -12 -21 -30
-4 -16 -10 -30 -15 -30 -5 0 -9 -4 -9 -10 0 -6 95 -10 264 -10 l264 0 88 60
c48 33 89 58 92 55 2 -2 -11 -23 -30 -47 -52 -64 -53 -68 -21 -67 23 0 35 11
72 68 75 119 262 322 347 381 12 8 59 41 104 72 45 32 83 58 85 58 11 0 -12
-51 -39 -85 -28 -37 -29 -39 -6 -25 26 16 106 167 95 178 -3 4 -10 1 -14 -7
-6 -9 -10 -7 -14 8 -3 11 1 25 9 32 8 6 14 17 14 23 0 6 10 25 21 41 l21 30
-6 -27 c-4 -16 -1 -30 6 -34 6 -4 8 -3 4 4 -3 6 0 14 7 19 8 4 17 19 20 33 29
122 34 133 71 166 26 23 33 34 22 34 -9 0 -26 -9 -38 -20 -27 -25 -38 -25 -38
-2 -1 16 -1 16 -14 0 -7 -10 -12 -42 -12 -77 1 -54 -1 -58 -17 -49 -10 5 -16
16 -13 26 2 9 7 43 11 75 4 33 11 57 18 57 8 0 7 3 -2 9 -7 5 -12 14 -9 21 2
8 15 3 36 -15 l33 -27 37 24 c39 26 112 53 173 63 28 5 36 11 32 24 -6 25 206
267 417 476 181 178 184 178 56 0 -193 -269 -337 -442 -362 -437 -7 1 -18 -6
-23 -16 -6 -11 -24 -25 -41 -32 -16 -7 -30 -15 -30 -19 0 -8 107 -52 140 -57
20 -4 41 10 107 70 46 41 109 94 140 117 32 23 112 86 178 139 171 137 318
235 264 176 -81 -89 -536 -554 -544 -555 -5 -1 -29 -31 -53 -66 -28 -44 -49
-65 -62 -65 -30 0 -24 -17 8 -23 18 -4 33 1 48 14 26 25 38 24 52 -4 22 -44
19 -61 -12 -64 -43 -3 -55 -21 -20 -28 16 -3 49 -16 74 -28 24 -12 47 -21 50
-20 8 2 130 -113 130 -122 0 -3 -9 -1 -19 5 -11 5 -25 10 -31 10 -22 0 3 -21
58 -49 54 -28 91 -58 157 -131 29 -31 29 -32 5 -20 -27 14 -104 73 -133 102
-32 33 -122 94 -157 108 -19 7 -39 17 -45 22 -5 4 -17 8 -27 8 -23 0 -86 40
-93 59 -8 19 16 33 32 19 10 -8 12 -7 7 6 -3 9 -10 16 -16 16 -8 0 -47 -17
-56 -26 -2 -1 22 -27 53 -58 70 -68 48 -78 -24 -11 -53 49 -61 47 -61 -18 0
-36 13 -33 -153 -44 -60 -5 -115 -5 -122 0 -7 4 -24 3 -37 -2 -23 -10 -154
-118 -358 -296 -57 -50 -138 -118 -181 -152 -42 -34 -80 -66 -83 -72 -5 -8
946 -11 3384 -11 l3392 0 -70 78 c-38 42 -79 86 -91 96 -37 34 -22 2 28 -59
27 -33 47 -62 45 -65 -3 -2 -40 32 -82 76 -42 45 -111 104 -152 132 -42 27
-82 57 -89 66 -7 9 -22 16 -32 16 -10 0 -21 5 -24 10 -3 6 -15 10 -26 10 -10
0 -27 4 -37 9 -39 20 -100 43 -127 47 -73 13 -79 27 -29 66 48 37 53 48 29 72
-8 8 -15 26 -15 41 0 22 -3 25 -20 20 -15 -5 -23 0 -31 17 -5 13 -20 28 -32
33 -12 6 -26 20 -32 32 -5 13 -15 23 -22 23 -6 0 -25 18 -43 40 l-31 39 42 58
c24 32 56 72 72 89 18 20 25 34 18 38 -6 4 -15 5 -20 1 -16 -9 -130 93 -152
136 -11 23 -19 43 -16 45 2 2 19 -8 38 -22 89 -67 231 -114 303 -100 17 4 50
21 73 39 24 17 104 79 178 136 76 58 141 101 149 98 17 -7 26 -53 12 -67 -7
-7 -7 -16 2 -30 29 -46 -2 -154 -48 -168 -10 -3 -7 4 7 19 14 15 19 29 14 37
-5 9 -39 -21 -112 -97 -57 -61 -105 -114 -106 -118 -2 -5 14 -16 35 -25 20
-10 55 -28 77 -40 22 -13 68 -38 101 -56 42 -23 72 -49 95 -80 79 -114 109
-147 180 -202 66 -51 107 -93 133 -137 4 -7 -27 10 -70 38 -97 65 -254 150
-264 144 -12 -7 -85 50 -121 94 -39 49 -101 88 -149 93 -33 3 -36 0 -59 -45
l-25 -48 64 -64 c36 -36 94 -88 130 -116 43 -35 72 -67 87 -98 27 -56 123
-183 143 -189 11 -4 10 1 -4 22 -10 15 -15 30 -12 33 3 3 8 -2 12 -11 3 -9 10
-13 15 -10 11 7 39 -14 39 -29 0 -5 -10 -2 -22 9 l-21 19 17 -27 c10 -15 40
-51 67 -80 27 -29 52 -61 55 -70 4 -13 16 -18 45 -18 l40 0 -40 48 c-69 82
-43 102 37 29 91 -84 19 -77 749 -77 l653 0 0 926 0 926 -43 40 c-23 22 -65
53 -93 69 -84 48 -95 68 -80 137 8 32 7 34 -14 27 -24 -8 -60 -40 -60 -53 0
-5 11 -36 25 -70 14 -34 25 -70 25 -79 -1 -27 -59 88 -60 117 0 20 -2 22 -11
10 -8 -11 -9 -8 -4 13 5 24 3 28 -12 25 -14 -2 -19 -14 -21 -51 -2 -38 -6 -47
-18 -43 -15 6 -17 -2 -14 -46 1 -27 -19 -58 -38 -58 -12 0 -22 24 -22 52 0 16
3 18 14 9 10 -8 16 -9 21 -1 9 15 -21 23 -44 11 -27 -15 -61 -14 -61 2 0 8 -3
8 -8 1 -13 -19 -41 -23 -69 -9 -16 7 -41 18 -57 24 -26 11 -28 15 -22 47 6 28
4 35 -8 32 -8 -2 -15 0 -16 4 -1 4 -14 21 -30 38 -28 30 -29 35 -23 95 4 40 1
81 -7 110 -13 46 -30 61 -30 25 0 -25 -29 -55 -80 -81 -28 -15 -48 -37 -70
-77 -30 -56 -40 -99 -19 -86 7 4 10 1 7 -7 -2 -8 -49 -32 -104 -55 -54 -22
-119 -51 -143 -63 -29 -15 -47 -19 -53 -13 -7 7 3 17 29 31 22 11 61 43 87 72
28 32 46 45 46 35 0 -27 39 0 46 32 7 28 44 92 78 129 24 28 7 30 -36 3 -18
-11 -43 -20 -55 -20 -15 0 -73 -51 -185 -163 -90 -90 -185 -181 -213 -202 -27
-22 -86 -69 -130 -106 -178 -146 -183 -147 -58 -14 67 72 161 168 208 215 48
47 120 126 160 175 101 125 177 202 208 214 31 12 36 31 9 31 -12 0 -32 20
-52 52 -18 29 -126 146 -239 259 -113 113 -273 276 -356 362 -82 86 -156 157
-162 157 -7 0 -13 1 -13 3 0 1 -4 17 -9 35 -5 17 -6 32 -1 32 4 0 48 -37 98
-82 133 -123 153 -138 196 -145 32 -5 46 -16 85 -66 25 -33 88 -109 138 -169
51 -60 103 -127 114 -150 12 -23 43 -70 69 -104 26 -34 49 -66 51 -71 3 -4 19
-21 37 -38 28 -25 35 -27 43 -15 8 13 13 10 30 -12 41 -55 52 -23 19 50 -11
24 -38 64 -60 89 l-40 46 22 24 c12 12 26 23 32 23 6 0 45 -35 88 -77 66 -66
80 -75 98 -67 20 9 10 21 -112 144 -138 139 -341 330 -352 330 -13 0 -147 110
-211 175 -68 68 -152 176 -223 288 -19 29 -31 41 -27 27 16 -54 37 -96 75
-147 22 -29 40 -57 40 -62 0 -11 -143 67 -148 81 -2 4 -12 8 -23 8 -10 0 -19
5 -19 11 0 6 -8 8 -18 5 -12 -4 -54 13 -113 45 -121 67 -153 92 -191 148 -18
25 -43 57 -57 71 -14 14 -38 42 -53 61 -15 20 -42 52 -60 71 -18 20 -43 49
-56 66 -33 44 -71 80 -128 123 -28 20 -59 53 -68 73 -9 19 -21 38 -26 41 -6 4
-28 32 -50 63 -22 31 -54 75 -72 97 -31 37 -29 36 30 -14 34 -30 62 -57 62
-61 0 -8 51 -32 57 -27 2 2 -3 10 -12 17 -8 7 -15 27 -14 44 0 27 1 28 9 10 4
-11 37 -44 72 -72 35 -27 69 -61 76 -74 7 -12 53 -49 102 -80 62 -41 90 -65
92 -80 2 -19 8 -22 31 -20 23 3 41 -9 100 -66 40 -37 103 -90 141 -116 38 -26
102 -77 143 -113 41 -37 104 -82 145 -102 61 -30 73 -40 71 -59 -2 -17 14 -34
72 -78 82 -60 182 -147 403 -348 79 -72 154 -138 168 -146 13 -8 24 -20 24
-26 0 -16 148 -134 169 -134 9 0 23 -5 31 -11 12 -8 9 -9 -10 -4 l-25 6 24
-20 c13 -12 21 -27 18 -34 -4 -12 1 -12 31 -2 48 16 99 90 107 154 8 68 37
205 45 214 4 5 10 -18 14 -50 3 -32 13 -80 21 -107 20 -66 19 -92 -5 -116 -11
-11 -20 -24 -20 -29 0 -5 -9 -13 -20 -16 -22 -7 -28 -35 -7 -35 8 0 22 9 32
20 28 31 71 50 84 37 6 -6 26 -12 44 -13 17 -1 44 -5 60 -9 17 -5 27 -3 27 4
0 6 7 11 15 11 8 0 20 10 26 22 19 37 151 199 157 193 3 -3 -22 -40 -55 -82
-69 -90 -83 -114 -83 -142 0 -14 6 -21 19 -21 11 0 21 -6 23 -12 3 -9 41 4
117 40 114 53 159 67 108 33 -15 -10 -50 -44 -77 -76 -47 -56 -48 -59 -45
-114 3 -49 3 -51 -4 -16 -5 22 -9 31 -10 20 -1 -11 -4 -37 -7 -58 -6 -32 -4
-36 10 -31 9 3 16 2 16 -4 0 -6 -5 -12 -12 -14 -6 -2 -8 -9 -5 -15 12 -19 59
33 61 66 1 20 19 53 54 96 l52 66 0 2220 0 2220 -61 62 c-37 37 -53 49 -40 30
12 -18 26 -35 32 -38 5 -4 18 -25 30 -48 l20 -42 -21 25 c-12 14 -40 49 -63
79 -46 58 -167 187 -167 177 0 -4 7 -23 15 -43 23 -54 5 -64 -44 -25 -22 18
-45 32 -50 32 -6 0 -11 9 -11 21 0 16 4 19 21 14 20 -7 21 -5 14 31 -9 51 -21
64 -59 63 l-31 0 23 -16 c12 -8 22 -21 22 -27 0 -17 -40 -52 -67 -61 -15 -4
-23 -14 -23 -29 0 -30 -31 -43 -97 -42 l-53 1 0 -32 c0 -24 -4 -31 -14 -27
-17 7 -27 52 -12 57 16 6 0 20 -26 21 -24 1 -30 16 -45 114 l-8 52 -35 -18
c-45 -22 -43 -40 14 -152 24 -47 47 -95 51 -108 6 -21 5 -22 -22 -10 -15 7
-33 20 -40 28 -10 12 -12 8 -13 -27 0 -24 -5 -43 -11 -43 -5 0 -8 4 -5 9 4 5
2 20 -3 33 l-9 23 -10 -25 c-18 -46 -26 5 -12 80 13 69 6 167 -10 126 -6 -18
-8 -16 -22 12 -13 25 -14 38 -6 60 6 16 8 41 4 56 -6 26 -10 28 -41 23 -25 -4
-35 -2 -35 7 0 13 -45 56 -58 56 -5 0 -9 6 -9 14 0 28 102 -5 141 -46 10 -11
20 -17 23 -15 2 3 -7 16 -21 30 -14 15 -26 35 -26 47 0 11 -4 20 -9 20 -16 0
-130 69 -153 93 -11 12 -18 16 -14 10 5 -9 0 -13 -12 -13 -24 0 -38 17 -40 49
0 13 -8 31 -16 40 -9 10 -16 23 -16 29 0 20 64 25 106 7 39 -16 39 -16 19 3
-11 11 -41 31 -67 45 -43 24 -53 25 -167 23 -67 -2 -124 0 -127 5 -3 5 -16 9
-30 9 -14 0 -35 10 -47 23 -20 21 -252 279 -372 415 l-50 56 75 -63 c125 -106
380 -343 401 -373 21 -28 73 -40 81 -18 4 13 95 -16 121 -38 9 -8 19 -13 22
-11 7 8 -97 129 -179 209 -42 40 -73 76 -71 80 3 4 -17 28 -43 52 -84 78 -230
235 -182 196 25 -21 95 -72 155 -114 61 -43 134 -99 163 -126 30 -26 83 -69
119 -95 37 -27 96 -76 133 -109 54 -50 76 -64 119 -73 69 -15 92 -14 118 4 15
10 23 11 25 4 8 -24 40 45 46 99 l6 57 8 -40 c5 -22 8 -55 8 -74 0 -18 4 -39
11 -47 9 -12 20 -5 60 38 45 49 49 57 49 103 0 27 5 68 12 90 l12 40 7 -55 c5
-30 9 -90 10 -132 2 -47 7 -78 13 -79 24 -3 32 -5 66 -21 19 -9 54 -22 77 -28
23 -7 44 -19 47 -26 10 -25 30 -15 101 51 39 36 73 65 76 65 4 0 34 38 68 85
34 47 64 85 67 85 3 0 -10 -28 -28 -62 -21 -40 -62 -91 -116 -142 -45 -44 -82
-86 -82 -94 0 -18 13 -14 172 40 l118 40 0 1159 0 1159 -257 0 c-224 0 -254
-2 -237 -14 12 -9 21 -11 25 -4 4 6 14 0 23 -13 9 -14 12 -25 6 -27 -5 -2 -10
-13 -10 -24 0 -17 -3 -18 -15 -8 -12 10 -15 10 -15 -4 0 -21 -16 -20 -30 2 -9
15 -10 14 -5 -5 8 -27 -3 -30 -21 -5 -13 16 -13 16 -14 -3 0 -22 -40 -33 -40
-12 0 7 -7 3 -16 -8 -13 -17 -16 -18 -24 -5 -8 13 -11 12 -23 -4 -14 -19 -15
-19 -21 2 -8 25 -17 27 -34 10 -9 -9 -12 -8 -12 4 0 11 -6 15 -20 11 -14 -4
-20 0 -20 11 0 12 -6 15 -25 10 -21 -5 -25 -3 -25 15 0 19 -33 49 -62 55 -7 2
-21 6 -31 11 -20 9 -66 -19 -172 -105 -38 -31 -115 -87 -170 -124 -55 -37
-130 -99 -167 -139 -73 -77 -101 -86 -46 -14 44 57 216 246 297 325 l64 62
-1382 0 -1383 0 62 -67 c75 -82 99 -130 100 -201 0 -103 -45 -160 -118 -147
l-39 6 19 38 c16 33 17 45 8 86 -6 27 -9 54 -6 61 3 8 -26 61 -64 119 l-70
105 -2535 0 c-2423 0 -2535 -1 -2526 -18 5 -9 33 -40 63 -68 82 -77 248 -287
236 -299 -10 -10 -104 45 -148 86 -25 23 -99 80 -165 127 -66 46 -140 104
-165 128 -36 34 -53 44 -79 44 l-33 0 36 -40 c51 -57 45 -59 -18 -6 l-53 46
-442 0 -441 0 0 -1050z m6500 990 c12 -17 26 -28 31 -24 5 3 24 -9 42 -26 20
-20 39 -30 53 -27 11 2 26 -2 32 -10 10 -10 10 -13 -3 -13 -9 0 -13 -5 -10
-11 4 -6 19 -7 36 -4 32 7 94 -13 204 -69 80 -40 76 -45 -10 -15 -32 11 -68
18 -79 15 -12 -2 -38 1 -59 9 -36 12 -37 12 -31 -8 3 -11 30 -42 60 -69 51
-48 164 -186 164 -202 0 -4 9 -19 20 -33 11 -15 18 -28 16 -31 -8 -8 -66 32
-72 50 -7 24 -63 65 -94 70 -19 2 -25 9 -26 28 -3 71 -5 80 -14 80 -5 0 -10
-8 -10 -17 -1 -17 -1 -17 -11 0 -5 9 -8 21 -5 26 3 5 -2 19 -13 32 l-18 22 -7
-26 c-4 -17 -1 -38 9 -57 8 -16 15 -36 15 -44 0 -8 6 -17 13 -19 6 -3 1 -6
-13 -6 -23 -1 -22 -3 13 -23 41 -24 46 -34 20 -41 -10 -3 3 -5 29 -6 28 -1 53
-7 62 -17 25 -24 19 -35 -16 -28 -18 3 -42 7 -53 9 -11 1 -23 3 -26 4 -3 0
-26 16 -50 35 -25 18 -54 35 -64 38 -11 2 -20 10 -20 18 0 8 6 14 13 13 24 -5
11 14 -23 33 -41 22 -59 59 -49 100 5 16 7 35 5 43 -1 7 7 4 21 -8 21 -20 23
-20 29 -4 4 13 -8 35 -41 73 -92 107 -129 170 -101 170 5 0 19 -14 31 -30z
m2438 -8 l23 -18 -51 -85 c-29 -46 -69 -106 -89 -134 -21 -27 -58 -79 -83
-115 -71 -101 -220 -253 -241 -244 -9 3 -17 10 -17 14 0 5 39 50 86 102 92 99
174 203 174 220 0 13 -239 -241 -289 -307 -12 -16 -40 -49 -61 -71 -22 -23
-37 -44 -34 -47 9 -9 -19 -45 -31 -40 -7 2 -16 -10 -20 -29 -7 -29 -9 -30 -12
-10 -3 13 2 33 10 45 11 17 37 109 37 132 0 12 -31 3 -37 -10 -3 -9 -52 -63
-109 -121 -58 -58 -113 -122 -124 -142 -25 -45 -18 -10 11 57 18 40 18 61 0
61 -4 0 -17 -20 -29 -45 -12 -25 -29 -45 -37 -45 -8 0 -15 -4 -15 -10 0 -13
-247 -197 -456 -339 -98 -67 -192 -133 -209 -147 -37 -32 -16 -22 45 21 71 50
78 52 38 8 -58 -65 -66 -84 -69 -148 -1 -33 -7 -69 -13 -80 -9 -16 -12 -3 -17
70 -3 50 -9 97 -13 106 -11 24 60 91 204 191 159 111 395 290 437 330 86 83
-24 12 -217 -140 -58 -45 -161 -123 -230 -173 -69 -50 -147 -112 -174 -138
l-48 -46 6 35 c3 19 8 53 12 76 6 39 9 42 58 58 28 9 68 26 88 39 45 27 396
286 403 297 9 15 -66 -28 -118 -68 -90 -68 -271 -188 -323 -214 -27 -14 -63
-34 -80 -43 -31 -19 -31 -18 -78 9 -30 18 -53 40 -61 59 -14 36 -45 137 -41
137 1 0 27 -23 57 -50 68 -63 102 -82 142 -78 l31 3 23 110 c35 170 41 177 42
48 1 -67 5 -113 11 -113 5 0 33 21 62 48 29 26 114 94 188 152 223 173 354
285 414 354 32 36 88 84 124 107 37 23 86 57 110 76 24 20 45 33 47 31 3 -2
-24 -36 -58 -75 -68 -78 -132 -163 -122 -163 4 0 35 25 68 56 34 31 92 77 130
101 37 24 67 50 67 56 0 13 80 97 93 97 3 0 2 -11 -3 -25 -11 -28 1 -33 20
-10 7 9 15 13 18 11 2 -3 -27 -45 -64 -93 -122 -156 -154 -203 -136 -203 5 0
40 39 77 88 70 89 402 430 420 431 6 0 20 -7 33 -17z m-7733 -179 c39 -38 98
-93 131 -123 68 -63 180 -207 170 -217 -4 -4 -64 52 -134 124 -70 72 -148 144
-173 161 -47 32 -109 95 -109 112 0 6 10 10 22 10 13 0 50 -27 93 -67z m311
20 c27 -20 73 -51 104 -69 30 -18 97 -73 147 -124 71 -71 97 -91 115 -88 15 2
24 11 26 26 2 12 5 22 7 22 9 0 100 -85 196 -185 59 -61 133 -128 165 -150
135 -92 219 -161 252 -211 13 -19 13 -18 7 1 -4 11 -9 43 -12 70 -4 39 -2 54
11 64 14 11 16 11 16 -4 0 -13 6 -15 29 -10 22 5 30 2 35 -11 6 -14 10 -11 24
17 15 29 60 65 70 55 2 -2 -6 -19 -17 -37 -26 -42 -29 -124 -5 -133 9 -3 22
-6 30 -6 17 0 81 65 143 145 72 94 257 318 278 336 10 8 80 84 157 167 76 84
139 152 141 152 1 0 0 -12 -3 -26 -3 -19 -1 -25 7 -20 6 4 11 2 11 -3 0 -6 -8
-10 -18 -8 -10 1 -46 -30 -95 -82 -81 -88 -262 -320 -255 -327 7 -6 33 24 85
96 68 96 236 290 250 290 12 0 -24 -69 -67 -130 -10 -14 -31 -53 -48 -86 -17
-34 -53 -91 -79 -126 -26 -35 -70 -97 -98 -138 -27 -41 -78 -111 -114 -155
-87 -107 -120 -161 -114 -185 3 -11 -1 -37 -9 -57 -10 -24 -12 -50 -8 -71 9
-39 1 -45 -45 -36 -19 3 -35 2 -35 -3 0 -16 291 -64 525 -88 263 -26 565 -75
765 -122 20 -5 23 -4 14 8 -143 182 -409 557 -419 590 -7 21 -7 21 -28 1 -12
-11 -35 -28 -52 -38 l-29 -19 18 30 c29 49 210 268 225 273 14 5 -31 -58 -82
-114 l-28 -31 38 -54 c21 -30 83 -107 138 -172 183 -216 284 -345 183 -234
-23 26 -47 47 -51 47 -11 0 12 -41 37 -66 12 -11 61 -64 109 -117 49 -53 94
-97 100 -97 6 0 -16 28 -49 63 -33 34 -71 76 -84 92 -13 17 18 -14 70 -68 52
-53 100 -97 107 -97 6 0 14 -18 18 -41 6 -35 23 -57 117 -151 60 -61 107 -112
104 -115 -7 -7 -46 16 -92 53 -51 42 -85 56 -211 88 -216 55 -761 113 -1128
121 -227 5 -194 -8 60 -24 344 -22 464 -32 650 -57 327 -43 529 -82 572 -109
24 -16 75 -84 52 -70 -7 5 -29 19 -48 32 -43 29 -69 36 -298 78 -516 94 -924
113 -1252 59 -110 -19 -110 -19 -138 76 -15 52 -15 173 1 225 4 11 -3 -1 -15
-27 -12 -26 -30 -50 -41 -54 -22 -7 -23 -4 15 -132 l25 -82 -63 -64 c-35 -35
-72 -69 -84 -75 -20 -11 -20 -10 -7 31 21 67 67 178 77 184 15 9 11 91 -5 97
-7 3 -22 24 -33 46 l-20 41 23 15 c13 8 24 22 24 30 0 17 -26 20 -35 5 -3 -5
-10 -10 -16 -10 -22 0 -5 27 54 83 37 36 50 53 31 41 -48 -30 -78 -57 -95 -88
-32 -56 -99 -74 -99 -26 0 20 9 30 68 76 20 16 32 35 32 49 0 15 11 32 31 45
34 25 33 38 -2 20 -23 -13 -23 -15 -2 38 3 6 0 12 -6 12 -6 0 -13 -11 -17 -25
-3 -14 -9 -25 -13 -25 -3 0 -36 35 -71 77 -106 125 -201 233 -207 233 -2 0 4
-11 14 -24 64 -83 165 -210 210 -263 55 -65 58 -84 20 -105 -23 -12 -14 -20
-252 237 -170 183 -207 222 -197 200 6 -11 49 -65 96 -120 235 -274 266 -315
266 -346 0 -8 -3 -10 -8 -4 -4 6 -16 17 -27 25 -17 13 -16 11 3 -14 27 -35 21
-47 -9 -20 l-22 19 17 -34 c25 -47 46 -111 38 -111 -9 1 -112 152 -112 166 0
5 -9 10 -19 10 -15 0 -25 -15 -40 -55 -11 -30 -19 -57 -17 -59 2 -2 18 3 34
12 27 14 31 14 36 -1 8 -19 11 -16 -40 -41 -33 -17 -49 -19 -73 -12 -26 7 -33
5 -41 -10 -6 -10 -10 -25 -10 -32 0 -8 -13 -27 -30 -43 -16 -15 -28 -32 -27
-37 1 -6 -15 -21 -35 -34 -35 -22 -38 -23 -38 -6 0 10 20 60 45 110 40 83 46
108 19 83 -5 -4 -22 -12 -38 -15 -26 -6 -28 -5 -16 9 11 13 10 15 -6 10 -12
-4 -10 -1 4 7 14 7 38 42 59 87 l35 75 -21 43 c-28 58 -27 60 15 24 29 -26 39
-30 50 -20 12 10 12 14 -5 25 -11 8 -29 43 -41 79 -21 63 -24 66 -78 93 -39
18 -58 34 -60 48 -2 12 -19 36 -39 55 l-36 34 23 -40 24 -40 -44 40 c-120 106
-177 179 -189 237 -5 24 -13 34 -30 36 -16 3 -29 17 -42 48 -11 24 -25 47 -33
51 -14 9 -96 114 -145 186 l-32 47 25 0 c13 0 46 -16 72 -37z m1479 -359 c-42
-55 -100 -130 -129 -169 -61 -81 -138 -155 -161 -155 -18 0 -17 3 28 68 27 41
282 323 315 349 35 28 19 0 -53 -93z m843 46 c-13 -24 -53 -75 -90 -113 -38
-38 -68 -72 -68 -76 0 -5 -9 -16 -20 -26 -11 -10 -20 -22 -20 -26 0 -5 -30
-47 -66 -94 -42 -55 -72 -85 -85 -85 -10 0 -19 4 -19 10 0 51 153 302 226 372
45 43 145 100 157 89 4 -4 -3 -27 -15 -51z m2162 -54 c0 -7 -20 -40 -45 -71
-24 -32 -42 -62 -39 -67 3 -5 -1 -17 -8 -26 -33 -38 -29 -45 8 -12 37 34 32
19 -12 -30 -12 -14 -30 -39 -41 -56 -26 -45 -80 -120 -136 -189 -26 -33 -72
-96 -101 -140 -52 -78 -96 -125 -116 -125 -17 0 -10 23 20 70 16 25 42 68 59
95 16 28 85 120 152 205 67 85 102 137 79 115 -66 -63 -268 -331 -340 -451
-14 -23 -13 -26 3 -38 9 -7 17 -21 17 -31 0 -16 -1 -16 -27 1 -16 9 -33 25
-40 33 -15 19 -17 45 -3 36 6 -3 10 -2 10 4 0 5 -4 13 -10 16 -23 14 -6 44 63
115 39 40 65 70 57 65 -35 -20 -170 -138 -170 -148 0 -7 -9 -23 -19 -37 -19
-24 -20 -24 -40 -6 -12 11 -21 22 -21 26 0 4 26 27 58 52 31 25 86 70 122 99
74 61 364 356 399 407 18 26 105 100 119 102 1 0 2 -6 2 -14z m-5085 -201
c134 -25 234 -85 338 -202 60 -69 72 -110 72 -263 l0 -125 -37 -66 -37 -66 34
-52 c40 -60 44 -86 16 -101 -11 -5 -21 -20 -23 -31 -4 -27 -38 -50 -45 -31 -6
17 -30 15 -37 -3 -8 -21 -23 -19 -29 5 -4 17 -12 20 -41 17 -20 -2 -36 -1 -36
3 0 5 -9 6 -20 3 -11 -3 -18 -9 -15 -13 3 -5 -3 -6 -14 -3 -13 3 -17 11 -13
25 3 15 1 19 -9 16 -19 -6 -23 -52 -6 -69 10 -10 14 -48 16 -132 1 -66 5 -125
7 -132 5 -13 -21 -45 -37 -45 -5 0 -9 -8 -9 -17 0 -14 -2 -15 -9 -5 -7 12 -12
12 -30 0 -18 -11 -23 -11 -30 1 -7 11 -10 9 -16 -8 -4 -14 -12 -20 -21 -17 -8
3 -14 1 -14 -4 0 -6 -4 -10 -10 -10 -5 0 -10 21 -11 48 -1 36 -3 41 -8 22 -5
-17 -14 -24 -27 -23 -10 1 -23 -5 -28 -14 -7 -13 -10 -13 -17 -2 -7 11 -9 11
-9 1 0 -7 -4 -11 -9 -8 -5 4 -7 -13 -5 -36 4 -42 4 -42 -6 -11 -6 18 -33 55
-59 82 -36 37 -48 56 -44 71 3 12 -2 27 -14 37 -10 10 -14 15 -9 11 10 -8 36
15 37 34 0 7 7 0 15 -17 l14 -30 -6 43 c-5 34 -3 42 10 42 12 0 16 -11 17 -47
1 -48 1 -48 11 -15 13 38 35 42 48 6 13 -34 13 -34 -12 -34 -16 0 -19 -3 -11
-11 6 -6 17 -11 24 -12 8 -2 19 -6 25 -9 6 -4 20 -5 31 -2 18 5 20 12 16 43
-4 26 0 41 11 50 25 21 36 4 36 -54 0 -57 10 -62 55 -29 16 12 18 18 7 34 -6
11 -12 33 -12 49 0 16 -6 31 -14 34 -8 3 -17 19 -21 36 -4 17 -13 31 -21 31
-17 0 -18 -16 -1 -24 10 -5 10 -7 0 -12 -7 -3 -13 -12 -13 -21 0 -30 -25 -5
-28 28 -6 76 -16 86 -22 19 -4 -49 -9 -65 -20 -65 -11 0 -16 14 -18 53 -2 28
-8 52 -14 52 -7 0 -8 -14 -4 -41 9 -57 -15 -47 -29 12 l-10 44 -3 -43 c-5 -67
-22 -38 -21 36 0 47 3 61 9 46 10 -25 39 -39 45 -21 11 35 25 94 25 111 0 15
-3 16 -15 6 -8 -7 -15 -22 -15 -34 0 -19 -4 -22 -30 -18 -18 3 -30 0 -30 -7 0
-7 -9 -9 -25 -5 -19 5 -25 2 -25 -11 0 -9 -4 -14 -10 -10 -5 3 -7 12 -4 20 5
11 -2 14 -30 13 -48 -2 -45 -19 6 -43 23 -11 44 -25 46 -31 1 -7 -18 -1 -44
12 -26 13 -57 24 -70 24 -12 0 -32 9 -45 21 -18 16 -20 19 -6 15 11 -3 16 -2
12 4 -3 6 -13 10 -21 10 -23 0 -27 24 -10 64 13 32 13 41 2 69 -8 18 -31 79
-52 137 -21 58 -41 107 -46 108 -12 5 -10 33 11 120 29 121 60 168 179 263 86
69 113 84 184 103 69 19 87 19 183 1z m4465 -549 c41 -22 45 -28 46 -63 1 -21
5 -49 9 -61 7 -21 12 -23 41 -17 44 8 44 -8 3 -51 l-31 -32 64 -64 c112 -111
288 -309 288 -324 0 -9 -4 -12 -10 -9 -5 3 -10 3 -10 -2 0 -4 -4 -14 -9 -21
-5 -9 -35 15 -106 87 -54 55 -141 132 -194 172 l-96 73 -2 50 c-1 28 -3 69 -5
91 -1 22 2 49 7 60 8 20 8 20 -13 1 -23 -20 -39 -75 -24 -85 5 -3 12 -28 16
-55 l8 -49 -26 16 c-25 17 -28 16 -76 -8 -55 -28 -64 -30 -54 -13 4 7 3 8 -4
4 -7 -4 -12 -13 -12 -20 0 -7 -10 -21 -21 -32 -22 -19 -22 -19 -10 4 22 42 5
33 -29 -15 -40 -56 -87 -109 -231 -263 -59 -63 -118 -129 -132 -146 -14 -17
-65 -66 -114 -109 -48 -44 -81 -71 -72 -60 126 155 317 396 360 455 121 164
187 258 222 315 34 56 36 63 26 99 -22 79 -139 357 -169 403 -21 31 28 -13
141 -129 103 -105 193 -188 219 -202z m1856 127 l36 -18 -7 -65 c-5 -36 -8
-81 -9 -100 0 -35 -2 -36 -107 -88 -59 -29 -142 -75 -185 -103 -43 -27 -79
-47 -81 -45 -2 2 -19 -12 -39 -30 -19 -19 -39 -34 -44 -34 -6 0 -29 -17 -53
-39 -39 -36 -95 -69 -152 -91 -14 -5 7 20 53 63 42 40 93 89 112 110 42 44 49
46 42 11 l-5 -25 45 30 c24 16 67 56 95 88 28 32 95 103 147 158 80 83 96 105
96 132 0 30 8 63 16 63 2 0 20 -8 40 -17z m-1641 -379 c32 -42 72 -86 87 -98
39 -30 228 -257 228 -273 0 -25 -30 -13 -72 30 -24 23 -112 117 -195 208 -145
159 -151 167 -137 188 8 11 18 21 22 21 4 0 34 -34 67 -76z m3360 -1103 c-9
-35 -22 -49 -64 -71 -20 -10 -49 -33 -66 -50 -16 -18 -61 -53 -100 -78 -38
-25 -101 -68 -139 -95 -94 -67 -76 -45 67 80 67 59 131 117 142 130 11 13 27
23 35 23 8 1 35 20 59 44 50 50 76 56 66 17z m320 -106 c-39 -58 -34 -87 21
-121 l46 -29 -49 -3 c-49 -4 -123 13 -134 29 -8 13 -64 -8 -138 -53 -82 -49
-100 -50 -66 -1 8 12 16 29 18 40 6 36 59 134 70 130 7 -3 11 -8 11 -13 -1 -5
-4 -32 -8 -60 l-6 -51 59 19 c52 17 61 23 66 50 9 40 51 82 95 95 19 5 36 9
38 8 2 -2 -8 -20 -23 -40z m-3635 -75 c390 -93 709 -263 892 -475 169 -195
246 -363 324 -705 26 -115 40 -268 30 -322 -5 -29 -12 -37 -41 -45 -19 -6 -45
-9 -57 -5 -15 4 -19 2 -13 -8 5 -8 23 -11 57 -8 l49 5 -6 -66 c-11 -110 -34
-180 -87 -268 -60 -100 -73 -111 -66 -56 5 34 33 89 58 113 30 28 65 130 45
130 -6 0 -25 -45 -29 -66 -1 -6 -14 -26 -29 -43 -15 -18 -27 -38 -27 -44 -1
-45 -50 141 -50 189 0 16 2 16 20 -1 20 -18 20 -17 20 15 0 27 -3 32 -20 27
-11 -3 -20 -2 -20 2 0 10 32 54 50 68 10 8 11 12 3 13 -7 0 -13 8 -13 18 -1 9
-7 -1 -15 -22 -15 -42 -41 -74 -51 -63 -4 3 6 70 21 147 15 77 26 143 23 145
-2 2 -17 -38 -32 -91 -16 -52 -32 -97 -36 -99 -16 -10 -43 146 -48 275 -5 134
-5 135 -18 85 -7 -27 -18 -91 -24 -141 -5 -51 -14 -102 -19 -115 -8 -22 -9
-21 -16 14 -4 21 -4 61 -1 88 4 28 3 49 -1 46 -6 -4 -79 -148 -88 -174 -1 -2
-50 10 -111 26 -128 34 -338 75 -355 69 -20 -7 346 -113 524 -153 41 -8 74
-46 87 -96 6 -24 16 -54 22 -66 10 -21 7 -93 -7 -138 -3 -11 7 7 23 40 l29 60
11 -35 c40 -127 44 -162 31 -272 -16 -138 -8 -169 62 -232 28 -25 55 -46 60
-46 16 0 10 -21 -17 -55 -33 -44 -94 -145 -94 -156 0 -38 62 46 126 168 9 18
20 30 25 27 5 -3 6 -10 3 -16 -5 -7 -1 -9 9 -5 18 7 21 -1 11 -27 -3 -8 -11
-13 -18 -10 -7 3 -19 -3 -27 -12 -13 -15 -12 -16 11 -9 19 6 13 -5 -33 -55
-31 -35 -57 -67 -57 -72 0 -16 22 -7 51 21 32 33 36 27 15 -24 -16 -38 -30
-46 -166 -101 -78 -31 -111 -38 -184 -42 -83 -4 -226 13 -226 27 0 19 105 41
191 41 52 0 101 5 109 10 8 5 10 10 4 10 -6 0 -50 7 -98 15 -63 11 -113 28
-184 64 -146 73 -279 123 -247 92 6 -5 46 -24 90 -43 44 -19 111 -53 149 -75
l69 -41 -49 -36 c-27 -19 -59 -36 -71 -36 -12 0 -50 16 -83 36 -56 32 -72 37
-173 46 -62 5 -118 15 -125 20 -7 6 -16 8 -20 4 -18 -19 35 -36 108 -36 85 0
140 -14 140 -37 0 -25 -19 -51 -55 -73 -23 -14 -38 -33 -45 -58 -14 -51 -12
-147 4 -208 12 -47 12 -52 -5 -62 -10 -7 -21 -12 -23 -12 -10 0 -46 94 -57
151 -7 35 -16 68 -20 73 -12 13 -22 -40 -16 -82 6 -52 47 -142 63 -142 15 0
39 -39 29 -48 -3 -4 -20 -7 -37 -8 -18 -1 -25 1 -18 6 8 5 9 10 2 14 -6 4 -8
14 -5 23 4 11 2 14 -8 11 -8 -3 -14 -18 -14 -34 0 -18 -6 -30 -15 -32 -19 -3
-86 141 -106 226 l-13 57 3 -72 c2 -54 11 -87 35 -138 17 -37 31 -74 31 -81 0
-24 -23 -25 -63 -5 -30 15 -45 17 -70 10 -17 -5 -33 -9 -34 -9 -2 0 -3 -7 -3
-15 0 -21 -3 -19 -40 15 -17 16 -48 32 -68 36 -31 6 -38 3 -57 -19 l-21 -27
-42 21 -42 21 -36 -21 c-38 -23 -54 -26 -54 -12 0 5 -4 21 -10 36 -9 24 -10
25 -28 8 -13 -13 -16 -22 -9 -31 8 -11 4 -12 -19 -7 -16 4 -35 8 -41 11 -9 2
-13 31 -13 100 0 54 -2 95 -4 93 -2 -2 -11 -44 -19 -92 -19 -106 -37 -140 -75
-135 -16 2 -32 13 -41 30 -14 24 -14 33 2 92 27 100 20 121 -13 38 -41 -104
-47 -110 -76 -70 -30 40 -30 46 1 99 24 42 34 99 17 99 -4 0 -13 -19 -20 -42
-8 -24 -29 -62 -48 -85 -19 -23 -44 -66 -55 -95 -12 -29 -27 -68 -35 -86 -8
-18 -14 -42 -14 -52 0 -11 -5 -20 -11 -20 -5 0 -8 4 -4 9 3 5 -10 15 -29 22
-24 9 -34 18 -33 31 1 19 8 20 56 7 32 -9 21 29 -14 50 -31 18 -36 26 -33 53
2 22 9 32 23 34 11 2 23 -2 27 -9 4 -6 10 -8 14 -4 4 4 3 12 -3 18 -7 7 -7 23
1 52 15 52 11 83 -9 67 -12 -10 -13 0 -8 57 8 105 -24 190 -59 155 -7 -7 -2
-24 15 -54 29 -49 45 -118 28 -118 -6 0 -11 5 -11 12 0 6 -14 33 -31 59 -29
46 -33 48 -105 65 -105 25 -136 45 -132 86 3 31 6 33 66 45 55 11 67 11 90 -3
25 -15 25 -15 8 0 -19 15 -18 16 16 16 21 0 38 6 41 13 3 8 27 22 54 32 87 32
199 95 233 130 19 19 29 35 22 35 -6 0 -16 -9 -22 -20 -34 -64 -298 -147 -602
-189 -190 -27 -227 -28 -263 -7 l-30 17 30 -7 c17 -4 48 -8 70 -10 34 -3 37
-2 20 8 -22 13 -80 58 -173 135 -66 56 -81 65 -60 34 17 -23 56 -56 136 -111
34 -24 60 -45 58 -47 -5 -5 -108 21 -129 33 -18 11 -97 156 -97 180 0 15 3 15
23 -3 65 -60 139 -69 189 -24 18 16 30 33 26 37 -4 4 -19 -5 -33 -20 -22 -24
-30 -26 -70 -21 -46 5 -115 33 -115 46 0 4 27 20 59 34 32 15 72 40 88 57 l28
30 6 -54 c6 -50 6 -49 7 22 1 41 6 102 11 135 6 33 11 108 11 166 0 129 19
203 61 239 16 14 41 49 56 79 16 30 35 57 43 59 12 4 13 2 4 -9 -21 -25 -49
-128 -38 -139 5 -5 30 -13 56 -16 42 -6 48 -4 86 31 27 23 48 56 62 91 28 77
25 80 -10 8 -38 -79 -58 -96 -121 -102 l-51 -5 7 34 c12 62 26 86 68 117 41
29 112 65 132 66 6 1 17 9 25 18 10 12 71 29 190 54 154 32 205 45 174 44 -5
0 -92 -14 -194 -29 -101 -16 -187 -28 -191 -25 -4 2 -12 -3 -19 -11 -19 -22
-30 -18 -30 11 0 19 -4 25 -14 21 -18 -7 -23 8 -31 98 -6 66 -44 202 -65 235
-15 23 -12 1 10 -67 46 -148 43 -283 -8 -336 -24 -26 -72 -57 -87 -57 -12 0
-43 87 -66 183 -13 53 -26 97 -30 97 -16 0 -9 -137 11 -192 27 -76 25 -148 -4
-228 -19 -51 -26 -61 -31 -45 -4 11 -12 34 -20 50 -12 28 -13 26 -9 -35 2 -36
1 -59 -2 -52 -11 23 -27 12 -21 -15 3 -16 2 -43 -1 -61 l-7 -33 -41 39 c-30
29 -46 57 -62 108 -22 67 -22 68 -17 21 6 -57 26 -98 75 -154 36 -41 37 -44
38 -127 2 -143 -19 -122 -105 104 -112 296 -79 760 77 1070 123 244 388 480
725 645 61 30 151 66 200 80 217 63 531 84 695 45z m-3893 -160 c15 -11 34
-18 43 -15 12 4 43 -18 96 -65 43 -38 124 -105 179 -149 56 -44 123 -103 150
-131 28 -28 94 -81 148 -116 55 -36 97 -68 94 -71 -21 -20 -376 260 -631 496
-67 62 -22 0 51 -70 91 -87 195 -176 268 -229 33 -24 142 -124 243 -224 106
-105 182 -173 182 -163 0 9 13 23 29 32 16 8 36 22 45 31 13 13 20 14 31 4 12
-10 22 -10 47 1 78 33 327 0 320 -43 -1 -9 6 -19 16 -22 38 -13 74 -207 40
-218 -6 -2 -8 -10 -4 -16 4 -7 16 -10 26 -7 16 5 18 1 13 -34 -5 -39 -4 -41
43 -68 54 -31 265 -225 302 -277 22 -32 23 -56 2 -56 -5 0 -39 36 -77 80 -51
61 -69 76 -74 63 -4 -13 -10 -9 -29 18 -29 41 -119 143 -131 147 -5 2 -3 -11
3 -29 10 -29 9 -34 -13 -50 -18 -13 -21 -22 -14 -32 47 -66 48 -68 36 -80 -9
-9 -21 -7 -53 12 -73 42 -108 80 -109 120 -1 25 -3 29 -6 13 -3 -13 -12 -26
-21 -29 -27 -11 -41 -36 -35 -65 4 -20 0 -30 -21 -43 -15 -10 -30 -15 -33 -11
-10 9 12 42 26 38 6 -1 11 2 11 6 0 17 -13 20 -36 10 -17 -8 -24 -18 -22 -32
3 -19 -3 -21 -47 -22 -28 -1 -60 5 -72 12 -13 8 -23 11 -23 6 0 -5 -13 -7 -29
-4 -16 2 -38 -1 -50 -8 -20 -10 -21 -9 -16 12 3 13 1 37 -5 52 -6 16 -9 31 -6
33 2 3 24 7 47 9 53 7 59 10 59 36 0 17 -2 18 -15 8 -13 -10 -19 -9 -36 6 -19
17 -21 18 -30 1 -12 -20 -35 -23 -42 -4 -2 6 -7 -3 -11 -21 -6 -27 -12 -33
-29 -30 -12 2 -30 -5 -40 -15 -10 -10 -23 -15 -29 -11 -6 4 -8 3 -5 -3 6 -10
-61 -53 -83 -53 -7 0 -53 -32 -104 -72 -50 -39 -97 -77 -105 -82 -28 -21 1 16
76 99 40 44 87 101 105 126 18 26 57 77 86 114 56 73 69 108 30 81 -25 -18
-38 -20 -38 -7 0 5 8 12 18 15 40 15 60 32 52 45 -4 8 -13 10 -19 7 -6 -4 -11
-2 -11 5 0 6 -33 46 -73 88 -85 88 -201 221 -239 271 -14 19 -69 82 -122 138
-53 57 -122 138 -153 179 -31 41 -62 77 -69 80 -10 3 -106 137 -138 191 -11
18 2 15 31 -8z m7984 -444 c71 -22 147 -63 195 -108 56 -51 82 -121 91 -239 5
-79 4 -91 -12 -103 -13 -9 -16 -19 -10 -32 5 -13 9 -15 12 -6 3 6 9 9 15 6 6
-4 14 0 19 7 12 20 12 -27 -2 -93 -18 -89 -63 -201 -52 -131 4 27 3 27 -11 -5
-14 -30 -14 -35 -1 -49 8 -8 16 -29 17 -46 0 -18 2 -45 2 -61 1 -18 -8 -39
-25 -57 -29 -31 -59 -38 -59 -14 0 8 -7 15 -15 15 -8 0 -15 5 -15 12 0 9 -3 9
-12 0 -18 -18 -38 -14 -38 8 0 12 -7 20 -16 20 -13 0 -15 -9 -9 -63 5 -48 3
-73 -9 -102 -9 -21 -19 -36 -22 -32 -3 3 -1 14 5 25 13 25 15 122 2 122 -5 0
-11 10 -15 22 -4 18 -8 20 -17 11 -10 -10 -10 -24 -1 -64 16 -68 15 -104 -3
-119 -13 -11 -15 -7 -15 26 0 29 -3 35 -10 24 -11 -17 -13 -10 -10 43 1 21 -3
37 -9 37 -6 0 -11 -19 -11 -44 0 -53 -16 -100 -31 -91 -6 4 -16 -1 -23 -11
-18 -24 -46 -11 -46 21 0 15 -6 25 -14 25 -9 0 -13 8 -10 23 3 16 1 15 -7 -5
-8 -22 -8 -31 5 -44 9 -8 14 -20 11 -25 -12 -18 -26 -8 -44 31 -20 45 -33 43
-24 -3 5 -23 3 -29 -8 -25 -14 5 -16 13 -18 85 -1 33 -4 41 -16 37 -15 -6 -21
26 -17 80 2 16 -1 16 -23 -5 -20 -20 -25 -33 -25 -79 0 -38 3 -50 10 -40 7 12
10 11 17 -5 7 -19 8 -18 14 5 5 19 7 13 8 -23 1 -53 -14 -60 -36 -16 l-13 24
0 -23 c0 -15 -5 -22 -12 -19 -10 3 -12 27 -10 89 4 78 2 87 -16 92 -27 9 -90
0 -109 -16 -13 -10 -17 -10 -20 -1 -3 9 -10 10 -24 3 -16 -9 -19 -7 -19 10 0
11 -5 19 -11 17 -6 -1 -18 8 -26 21 -10 14 -11 22 -4 22 6 0 11 -7 11 -15 0
-8 5 -15 10 -15 14 0 13 12 -4 35 -17 26 -27 88 -15 106 7 11 11 10 23 -6 8
-11 18 -16 22 -12 4 4 -6 20 -23 36 -23 20 -34 43 -42 83 -7 33 -21 64 -33 74
-21 19 -21 19 -16 -8 3 -16 1 -28 -3 -28 -5 0 -11 12 -15 28 -3 15 -7 32 -9
39 -7 24 36 197 60 241 68 124 252 265 379 292 52 11 177 4 237 -14z m-8724
-102 c90 -21 160 -64 261 -164 52 -51 71 -83 45 -73 -17 6 -17 5 -3 -13 33
-40 69 -121 81 -182 15 -70 7 -115 -37 -211 -22 -50 -23 -55 -8 -72 16 -18 20
-73 13 -171 -3 -30 -7 -44 -13 -38 -12 12 -39 13 -32 2 8 -13 -62 -6 -78 7 -8
7 -20 10 -26 6 -5 -3 -10 1 -10 9 0 28 -43 18 -82 -19 -21 -18 -38 -30 -38
-24 0 5 -4 9 -10 9 -16 0 -12 -113 6 -138 18 -27 11 -42 -21 -42 -26 0 -28 7
-41 115 -5 44 -9 55 -14 40 -5 -11 -6 -29 -4 -40 2 -11 6 -44 8 -73 3 -44 0
-55 -15 -63 -11 -5 -19 -17 -19 -26 0 -30 -10 -7 -14 33 -3 21 -7 50 -10 62
-4 20 -3 22 9 12 20 -17 20 4 0 24 -8 8 -15 29 -15 47 0 18 -3 29 -7 25 -5 -4
-6 -47 -5 -96 l4 -87 -28 -7 c-18 -5 -30 -3 -32 4 -8 23 -42 -23 -42 -57 0
-41 -18 -44 -26 -3 -4 17 -10 30 -15 30 -5 0 -9 11 -9 24 0 14 -4 27 -9 30
-12 8 -21 -17 -15 -41 4 -13 0 -20 -10 -20 -9 0 -16 4 -16 9 0 4 -4 8 -10 8
-5 0 -10 -13 -10 -30 0 -16 5 -30 10 -30 6 0 10 7 10 15 0 8 9 15 20 15 17 0
19 -3 10 -19 -14 -28 -12 -44 5 -37 10 3 17 -5 24 -27 9 -30 10 -31 16 -9 7
21 8 21 21 5 12 -15 15 -16 23 -4 10 15 10 16 26 -64 3 -14 10 -25 16 -25 7 0
8 7 4 18 -24 56 -18 78 23 73 6 -1 12 3 12 9 0 5 5 10 11 10 5 0 7 -6 3 -12
-6 -10 -4 -10 7 0 20 19 34 14 46 -15 9 -23 10 -14 6 45 -7 81 6 96 27 32 21
-63 33 -53 32 25 -1 23 2 19 9 -15 6 -25 17 -50 26 -57 25 -20 5 -37 -23 -18
-22 14 -24 14 -24 -3 0 -10 -11 -25 -25 -32 -17 -9 -23 -19 -20 -31 6 -17 -19
-34 -35 -24 -4 3 -10 -1 -13 -9 -4 -9 -14 -12 -26 -9 -15 4 -21 1 -21 -11 0
-18 -16 -21 -26 -5 -5 8 -9 7 -15 -3 -5 -10 -19 -13 -40 -10 -28 4 -30 7 -26
31 7 31 -6 60 -18 41 -4 -6 -13 -9 -21 -6 -19 7 -18 -8 1 -24 19 -16 19 -40 1
-40 -19 0 -27 14 -28 50 -1 29 -18 33 -18 4 0 -8 -4 -14 -10 -14 -5 0 -10 9
-10 20 0 11 -4 20 -10 20 -13 0 -13 27 0 32 6 2 2 8 -8 14 -16 11 -18 9 -14
-20 l4 -31 -21 22 c-11 12 -21 32 -21 45 0 13 -5 30 -11 38 -8 11 -9 5 -4 -25
l6 -40 -20 25 c-27 33 -30 153 -5 178 15 15 16 14 10 -5 -4 -14 0 -35 10 -55
15 -28 19 -30 22 -13 7 38 22 40 22 3 0 -23 6 -38 15 -42 11 -4 15 1 15 19 0
39 -24 105 -37 105 -8 0 -13 12 -13 29 0 39 20 51 21 14 0 -15 3 -21 6 -13 2
8 7 22 9 30 4 12 6 12 14 1 4 -8 6 -20 3 -28 -3 -7 0 -13 6 -13 6 0 11 5 11
11 0 11 41 2 50 -12 3 -4 13 12 22 37 16 46 16 46 -4 25 -30 -33 -41 -16 -35
55 2 35 2 64 -2 64 -14 0 -48 -79 -39 -88 6 -6 8 -16 6 -24 -3 -9 -9 -5 -17
10 -10 20 -9 30 7 63 l19 39 -21 1 c-43 3 -97 -3 -160 -17 -28 -7 -29 -6 -22
21 6 23 4 27 -10 21 -14 -5 -15 -4 -5 8 10 11 7 19 -14 40 -40 40 -76 136 -40
106 18 -15 18 -12 4 48 -6 26 -24 63 -40 84 -42 54 -52 113 -34 199 19 93 49
142 137 224 181 168 280 197 495 149z m6633 -567 c16 -34 40 -82 54 -107 53
-94 69 -143 71 -218 1 -53 6 -77 18 -89 13 -13 17 -14 17 -4 0 16 43 -41 84
-111 15 -27 23 -49 17 -52 -10 -6 -81 60 -81 75 0 4 -18 27 -41 51 l-40 43
-20 -24 c-10 -13 -19 -22 -20 -20 0 2 -2 15 -5 29 -2 14 -8 43 -13 65 -15 61
-60 251 -80 340 -27 118 -11 127 39 22z m1700 -469 c7 -19 9 -20 9 -5 1 16 3
17 16 3 8 -8 15 -23 15 -33 1 -14 4 -13 15 7 13 23 14 23 16 5 1 -11 1 -27 0
-35 -2 -12 0 -13 7 -1 8 11 12 10 22 -5 9 -16 11 -16 6 -2 -7 25 12 33 33 14
9 -8 26 -17 37 -19 10 -1 25 -6 32 -11 7 -4 20 -2 29 5 14 12 15 7 8 -51 -4
-36 -12 -72 -17 -80 -6 -10 -8 1 -4 33 4 30 2 46 -4 42 -6 -3 -10 -19 -10 -34
0 -16 -7 -34 -15 -41 -13 -10 -15 -9 -17 11 0 13 0 36 1 52 3 42 -16 32 -24
-13 -7 -44 -25 -64 -25 -29 0 19 -2 20 -16 8 -15 -12 -16 -10 -9 29 6 35 4 42
-9 42 -9 0 -16 6 -16 13 0 8 -3 8 -9 -2 -7 -11 -11 -10 -22 7 -12 19 -14 19
-26 4 -11 -15 -12 -14 -13 10 0 14 -4 28 -9 30 -11 3 -25 68 -16 68 3 0 10
-10 15 -22z m450 -761 c14 -6 31 -11 39 -13 44 -9 149 -73 200 -122 104 -101
161 -228 161 -360 0 -51 -7 -80 -34 -141 -31 -72 -33 -81 -29 -169 3 -91 3
-93 -24 -117 -33 -28 -49 -31 -57 -9 -3 8 -9 13 -14 11 -4 -3 -25 -2 -48 2
-22 4 -49 5 -60 1 -12 -5 -23 -1 -31 9 -11 14 -14 14 -23 1 -11 -15 -8 -96 5
-137 6 -17 3 -24 -11 -29 -11 -4 -29 -18 -41 -32 -18 -20 -23 -21 -23 -9 0 10
-4 17 -10 17 -5 0 -10 -12 -10 -26 0 -14 -4 -23 -10 -19 -5 3 -10 15 -10 26 0
11 -4 17 -10 14 -5 -3 -10 1 -10 9 0 9 -4 16 -10 16 -5 0 -10 -10 -10 -21 0
-18 -2 -19 -15 -9 -8 7 -15 20 -15 29 0 9 -5 22 -12 29 -7 7 -8 12 -2 12 5 0
10 9 11 20 1 11 -2 20 -8 20 -5 0 -9 8 -9 17 0 9 -3 13 -7 9 -4 -4 -7 -35 -6
-69 1 -46 -1 -56 -7 -39 -5 12 -14 22 -19 22 -5 0 -12 15 -14 33 -2 19 -4 8
-5 -28 -3 -90 -21 -54 -23 47 -2 73 -5 84 -16 70 -7 -9 -13 -26 -14 -37 0 -11
-5 -2 -10 20 -21 95 -16 88 -57 80 -20 -5 -46 -8 -57 -9 -11 -1 -26 -5 -33 -9
-18 -12 -42 -1 -42 18 0 19 -14 19 -34 0 -21 -22 -26 -19 -26 18 0 17 -7 41
-15 51 -19 24 -20 66 -2 66 7 0 18 -12 25 -27 11 -26 11 -25 5 12 -4 22 -7 52
-7 66 -1 15 -8 35 -17 45 -9 11 -34 46 -56 79 l-40 60 12 107 c13 111 29 150
79 197 14 14 26 30 26 37 0 40 194 158 287 174 54 9 156 2 193 -13z m-5736
-62 c23 -10 63 -16 100 -15 33 0 68 0 76 0 8 0 40 4 70 9 63 10 70 8 70 -22 0
-12 7 -31 16 -42 14 -19 12 -20 -88 -32 -57 -6 -132 -12 -168 -12 l-66 -1 -36
48 c-34 45 -58 85 -58 96 0 6 16 0 84 -29z m2084 -54 c11 -6 -1 -37 -51 -138
-36 -71 -69 -146 -72 -167 -4 -21 -12 -35 -19 -33 -7 3 -10 36 -9 98 1 61 -1
85 -7 69 -4 -14 -9 -47 -10 -75 -1 -43 -3 -47 -12 -28 -18 38 -1 110 34 141
16 15 42 47 56 72 37 65 60 81 90 61z m-4097 -165 c6 3 43 -27 82 -68 73 -74
507 -483 536 -504 14 -11 13 -16 -4 -48 -11 -20 -22 -36 -26 -36 -3 0 -29 30
-58 68 -28 37 -97 114 -153 172 -113 116 -107 107 30 -48 110 -123 180 -220
143 -197 -5 3 -11 -2 -13 -11 -3 -19 -83 62 -258 260 -238 270 -357 416 -359
439 -1 5 15 -1 35 -12 19 -12 40 -18 45 -15z m2304 -68 c34 -74 66 -208 85
-353 6 -44 26 -154 45 -245 18 -91 36 -181 39 -201 8 -44 9 -45 164 -149 80
-54 135 -98 158 -129 56 -74 183 -198 223 -218 62 -31 174 -23 306 21 109 36
110 37 50 31 -33 -3 -103 -17 -155 -31 -174 -48 -236 -19 -398 185 -41 51 -88
101 -105 110 -56 31 -178 133 -193 163 -8 16 -18 52 -21 81 -5 43 -3 50 8 40
7 -7 17 -13 21 -13 13 0 9 90 -6 123 -22 52 -45 136 -61 227 -18 100 -18 103
-6 96 5 -4 21 -44 36 -91 15 -47 36 -96 46 -109 11 -14 22 -39 25 -58 9 -44
42 -80 67 -72 10 3 23 0 30 -9 15 -18 135 -109 176 -133 17 -10 31 -25 31 -33
0 -25 -32 -51 -64 -51 -26 0 -35 7 -54 43 -29 54 -59 93 -66 86 -3 -3 4 -37
17 -75 l22 -69 52 -3 c63 -4 85 7 122 58 l29 40 26 -40 c29 -45 45 -49 71 -21
17 20 18 20 42 -10 29 -35 39 -36 69 -8 l22 21 11 -21 c7 -11 26 -28 43 -37
30 -15 32 -15 56 10 l26 25 32 -29 c38 -33 60 -31 100 11 26 28 28 28 55 12
27 -16 30 -16 60 6 26 19 36 22 50 12 29 -17 45 -13 72 19 31 36 52 38 78 8
18 -22 18 -22 19 -2 0 11 -5 25 -11 31 -9 9 -15 90 -10 164 1 27 28 47 42 32
4 -4 10 -53 12 -108 4 -97 5 -100 27 -100 23 0 40 17 103 105 l18 25 -6 -40
c-18 -127 -22 -160 -18 -165 7 -8 23 23 39 77 12 43 13 59 3 93 -14 46 -12 50
32 59 33 7 53 31 26 31 -11 0 -16 15 -19 58 -3 47 0 60 17 74 11 10 22 17 25
18 3 0 17 -43 30 -95 13 -52 28 -95 32 -95 16 0 41 -68 34 -93 -3 -13 -26 -52
-52 -87 -25 -34 -64 -92 -86 -129 -22 -36 -68 -95 -102 -131 -33 -36 -74 -81
-90 -100 -35 -41 -68 -100 -56 -100 10 0 7 -2 110 112 41 46 92 97 112 113 20
17 37 37 38 46 0 27 41 110 88 181 35 54 46 79 52 130 4 35 6 65 4 67 -2 2 -4
-1 -4 -8 0 -7 -4 -9 -10 -6 -5 3 -10 36 -9 73 0 72 16 62 20 -13 2 -35 3 -36
6 -10 3 16 0 47 -7 68 -9 31 -8 52 9 120 11 45 22 100 26 122 3 22 16 72 27
110 23 78 43 111 34 55 -3 -19 -13 -111 -21 -205 -9 -93 -22 -214 -30 -267 -8
-54 -15 -142 -15 -196 0 -56 -6 -119 -14 -145 -18 -59 -11 -61 13 -4 12 27 21
80 25 152 3 61 11 137 16 170 6 33 19 137 30 230 23 198 44 315 62 347 l13 23
4 -25 4 -25 8 25 c10 29 10 31 -21 -140 -10 -58 -35 -238 -55 -400 -20 -162
-38 -310 -41 -329 -5 -29 -44 -73 -235 -263 -299 -298 -306 -302 -502 -232
l-107 38 -119 -17 c-69 -10 -137 -15 -162 -11 -75 11 -159 60 -282 163 -64 54
-158 125 -209 157 -50 33 -112 78 -136 102 -43 40 -44 44 -39 87 5 34 3 45 -7
45 -9 0 -18 37 -30 133 -30 227 -86 548 -111 642 -14 50 -25 96 -25 103 0 26
13 9 45 -60z m-64 -82 c32 -59 79 -356 110 -691 10 -110 9 -120 -7 -132 -10
-7 -21 -13 -24 -13 -4 0 -10 57 -14 128 -14 242 -52 486 -106 682 -47 166 -39
170 41 26z m1797 -80 c4 -32 -27 -71 -63 -80 -25 -6 -25 -7 -9 -123 3 -28 3
-60 0 -70 -7 -17 -8 -17 -22 1 -8 11 -14 30 -14 43 0 13 -6 23 -14 23 -16 0
-26 -21 -26 -54 0 -13 -13 -39 -30 -57 l-30 -34 -2 108 c-4 201 -6 182 24 182
24 1 29 -5 45 -55 l18 -55 3 37 c2 20 -3 56 -11 80 -18 52 -6 79 23 53 19 -17
45 -20 34 -4 -4 8 1 9 16 4 16 -5 20 -4 15 5 -8 13 13 32 30 27 6 -2 11 -16
13 -31z m-1205 -23 c8 -16 12 -34 10 -40 -7 -20 11 -15 31 8 l18 21 24 -36
c22 -33 26 -49 29 -149 1 -62 5 -123 7 -137 4 -34 -22 -37 -54 -5 -25 25 -62
111 -74 174 -6 27 -9 30 -16 17 -5 -9 -6 -21 -3 -26 3 -6 -1 -7 -9 -4 -13 5
-16 -4 -16 -57 0 -45 -3 -60 -10 -49 -5 8 -10 11 -10 5 0 -5 -5 -3 -10 5 -5 8
-10 39 -10 69 0 49 -1 52 -17 40 -15 -13 -16 -11 -10 11 4 14 7 31 7 38 0 6 6
12 13 12 7 0 25 29 41 65 15 36 32 65 37 65 5 0 15 -12 22 -27z m647 -43 c10
-5 29 -27 42 -47 21 -34 23 -49 21 -143 -2 -122 -12 -156 -50 -171 -38 -14
-69 -4 -81 28 -14 38 -34 246 -26 269 13 34 45 74 60 74 9 0 24 -4 34 -10z
m-335 -6 c9 -4 20 -16 24 -28 8 -20 -2 -225 -14 -294 l-6 -33 -30 18 c-17 10
-37 29 -44 43 l-14 25 -1 -27 c0 -56 -60 -21 -84 49 -19 56 -22 198 -4 209 6
4 14 2 16 -4 2 -7 8 -12 14 -12 6 0 7 7 4 16 -3 8 -2 13 3 10 5 -3 20 3 32 14
24 19 72 26 104 14z m192 -20 c25 -25 25 -26 21 -160 -4 -151 -12 -170 -79
-180 -68 -11 -87 34 -88 207 -1 74 2 90 20 113 40 51 88 58 126 20z m340 -34
c27 -54 32 -190 9 -244 -18 -43 -66 -63 -89 -38 -31 34 -37 71 -31 180 7 123
20 155 62 150 21 -2 32 -14 49 -48z m114 20 c13 -18 18 -45 19 -95 3 -144 1
-155 -18 -155 -10 0 -23 -5 -30 -12 -21 -21 -29 3 -41 119 -10 99 -10 117 4
144 19 35 40 35 66 -1z m182 -262 l15 -58 -29 -14 c-26 -13 -30 -13 -39 2 -9
16 -9 15 -10 -1 0 -25 -34 -88 -58 -110 -35 -32 -45 -13 -39 77 4 67 9 84 27
98 26 21 40 16 41 -15 1 -17 3 -16 10 8 7 24 58 80 65 72 1 -1 9 -28 17 -59z
m-976 -50 c28 -31 38 -126 19 -173 -8 -19 -19 -35 -24 -35 -5 0 -21 18 -36 40
-21 32 -26 51 -26 104 0 51 4 67 18 75 24 14 26 14 49 -11z m716 -125 c-3 -7
-10 -13 -17 -13 -6 0 -24 -21 -40 -46 -38 -60 -51 -46 -50 50 2 85 11 107 56
129 l33 16 11 -62 c6 -34 9 -68 7 -74z m-288 94 c16 -12 17 -23 11 -83 -7 -67
-44 -154 -66 -154 -36 0 -79 186 -52 226 17 25 78 31 107 11z m156 -69 c-2
-53 -43 -138 -66 -138 -19 0 -46 59 -47 103 -1 64 9 83 50 100 51 21 66 6 63
-65z m-300 7 c-3 -63 -19 -135 -32 -151 -17 -21 -38 -5 -64 47 -26 51 -32 107
-14 140 8 17 19 20 62 17 l51 -3 -3 -50z m4594 -109 c-3 -27 -13 -58 -22 -68
-12 -13 -13 -18 -4 -16 7 2 16 -3 18 -9 3 -7 0 -13 -5 -13 -13 0 -62 -47 -62
-60 0 -5 -4 -10 -10 -10 -5 0 -18 -10 -29 -21 -19 -20 -22 -21 -43 -7 -21 14
-23 14 -33 -5 -17 -34 -35 -32 -35 2 0 17 -6 40 -12 51 -10 16 -10 24 0 40 19
31 14 35 -8 7 -21 -26 -28 -87 -10 -87 6 0 10 -7 10 -15 0 -9 -6 -12 -17 -8
-11 4 -14 3 -9 -5 4 -7 3 -12 -3 -12 -5 0 -11 10 -13 22 -2 12 -9 23 -16 26
-7 2 -10 -2 -6 -12 3 -9 2 -16 -4 -16 -9 0 -16 38 -24 115 -1 11 -7 24 -12 28
-8 6 -8 10 -1 13 6 2 9 21 7 42 -4 33 -3 35 12 23 9 -7 16 -19 16 -26 0 -15
28 -73 39 -80 16 -9 52 34 58 71 6 34 7 36 20 18 12 -16 15 -17 23 -4 6 9 10
10 10 3 0 -6 -4 -15 -10 -18 -13 -8 -13 -35 -1 -35 5 0 17 7 25 15 14 14 17
13 30 -17 9 -20 15 -26 15 -15 1 9 5 17 10 17 5 0 8 7 7 16 0 9 5 19 12 21 7
3 12 -4 12 -17 0 -12 5 -18 10 -15 6 3 10 16 10 28 0 12 7 41 17 65 20 54 35
38 28 -32z m-5405 -275 c0 -10 -6 -23 -12 -29 -31 -25 -244 -107 -358 -137
-69 -18 -138 -38 -154 -44 -43 -17 -42 -7 1 25 21 16 61 47 88 69 56 46 128
81 144 70 6 -3 14 0 17 8 6 16 81 44 91 34 3 -4 -18 -18 -48 -31 -52 -23 -105
-66 -81 -66 11 0 80 33 167 79 21 11 51 21 65 21 14 0 32 5 40 10 24 15 40 12
40 -9z m4319 -453 c157 -117 341 -291 341 -322 0 -8 -13 -25 -29 -37 -16 -12
-32 -31 -35 -43 -5 -17 -13 -9 -56 54 -27 41 -50 81 -50 88 0 7 -33 48 -73 90
-108 115 -182 212 -161 212 4 0 32 -19 63 -42z m-3175 10 c3 -13 6 -41 6 -63
0 -22 9 -72 19 -110 11 -39 25 -119 31 -180 6 -60 17 -144 25 -185 7 -41 21
-117 31 -169 14 -78 15 -94 3 -101 -31 -20 6 -20 113 -2 62 11 114 19 116 17
2 -1 -16 -18 -40 -36 -24 -18 -62 -50 -85 -71 -38 -34 -48 -38 -100 -39 -56
-1 -57 -1 -23 -11 79 -22 104 -34 121 -58 15 -21 68 -190 87 -280 5 -24 -48
39 -169 200 -63 83 -62 83 -54 0 3 -42 2 -86 -3 -100 l-10 -25 -7 30 c-15 63
-27 93 -54 138 -16 25 -27 48 -24 51 3 3 -15 11 -41 18 l-47 12 6 41 c10 63
14 72 40 89 14 9 25 26 25 38 0 17 5 14 31 -18 17 -22 32 -41 34 -43 9 -9 -4
48 -19 81 -10 24 -18 83 -22 180 -20 395 -26 588 -21 602 9 23 24 20 31 -6z
m-57 -320 l-2 -243 -26 -3 c-41 -5 -53 18 -39 80 6 29 15 105 19 168 7 90 37
240 48 240 1 0 1 -109 0 -242z m23 -349 c0 -12 -7 -19 -20 -19 -26 0 -70 -43
-69 -67 0 -15 2 -14 9 3 10 26 26 38 34 25 8 -12 -13 -111 -23 -111 -4 0 -7
-17 -8 -38 -3 -66 -18 -90 -65 -103 -57 -15 -159 -36 -290 -60 -58 -10 -182
-37 -275 -60 -198 -49 -345 -80 -351 -74 -8 7 63 38 232 100 94 34 198 74 231
88 33 14 123 48 200 77 77 28 159 58 182 67 59 22 80 45 98 111 23 82 26 89
32 75 6 -18 23 -16 23 2 0 9 6 12 15 9 8 -4 15 -1 15 6 0 10 3 10 15 0 8 -7
15 -21 15 -31z m270 -262 c0 -12 16 -56 36 -97 49 -102 84 -237 90 -345 l5
-90 -34 125 c-103 377 -100 369 -141 383 -7 3 -4 12 8 26 25 27 36 27 36 -2z
m3669 -536 c20 -5 63 -14 97 -20 93 -17 168 -52 243 -113 117 -96 159 -183
163 -338 2 -76 0 -92 -26 -145 -16 -33 -32 -80 -36 -105 -5 -25 -11 -63 -16
-85 -7 -39 -6 -39 12 -24 10 9 46 26 79 39 33 13 77 32 98 42 65 32 40 12 -65
-53 -56 -34 -97 -64 -91 -66 7 -3 51 9 100 26 48 16 89 28 91 26 4 -4 -69 -38
-148 -67 -30 -12 -67 -34 -82 -50 -26 -28 -61 -37 -73 -18 -3 6 -16 8 -29 4
-12 -3 -33 -1 -47 5 -31 11 -52 1 -43 -22 3 -9 2 -17 -3 -17 -6 0 -16 -19 -23
-42 l-14 -43 -7 48 c-9 58 -15 66 -24 37 -7 -23 12 -107 26 -116 5 -3 9 0 9 5
0 6 9 11 19 11 10 0 22 8 25 17 10 25 21 6 45 -76 14 -44 19 -76 13 -80 -5 -3
-13 -21 -17 -39 -3 -17 -10 -32 -15 -32 -4 0 -10 -9 -13 -19 -3 -11 -34 -34
-76 -55 -40 -20 -83 -48 -96 -63 l-24 -28 -1 27 c0 27 -15 39 -37 30 -7 -2
-13 -10 -13 -18 0 -8 -4 -14 -10 -14 -5 0 -10 4 -10 10 0 6 -9 6 -25 0 -23 -9
-26 -7 -31 19 -5 22 -10 27 -25 24 -15 -4 -20 1 -25 26 -5 22 -11 30 -21 27
-9 -4 -11 -2 -7 6 5 7 0 9 -14 6 -20 -6 -27 4 -24 33 1 4 -8 5 -18 2 -20 -5
-24 5 -21 52 5 64 25 87 37 40 7 -27 19 -33 27 -12 4 9 8 9 14 1 4 -6 18 -14
31 -18 12 -4 27 -16 32 -27 15 -28 30 -23 30 10 0 16 7 35 17 42 15 13 16 10
10 -33 -6 -40 -4 -49 13 -58 10 -5 29 -10 41 -10 20 0 21 4 17 51 -5 46 -4 50
16 47 12 -1 27 1 34 5 18 12 32 -1 32 -31 0 -21 -2 -24 -10 -12 -9 13 -11 13
-20 0 -5 -8 -10 -23 -10 -33 0 -15 3 -16 20 -7 11 6 25 8 32 4 8 -5 9 6 6 40
-3 25 -2 46 3 46 9 0 11 -7 13 -40 1 -16 7 -16 32 -2 14 8 14 10 0 21 -12 10
-13 18 -5 32 8 16 6 21 -13 28 -16 6 -26 5 -33 -3 -14 -18 -65 -29 -65 -15 0
8 -4 8 -14 0 -10 -9 -20 -9 -33 -2 -11 5 -25 6 -33 1 -19 -12 -40 -1 -40 20 0
22 28 34 46 19 11 -9 12 -6 3 22 -13 38 -29 60 -29 40 0 -9 -9 -12 -25 -9 -14
3 -25 1 -25 -5 0 -5 -6 -4 -14 2 -19 16 -25 89 -9 131 l12 35 1 -30 c0 -28 2
-27 24 20 l24 50 2 -50 c1 -43 3 -46 11 -26 6 16 6 44 -2 82 -6 32 -9 68 -6
79 7 28 -9 35 -17 7 -7 -20 -8 -20 -14 -4 -7 17 -9 17 -27 -4 -13 -14 -16 -23
-8 -26 21 -8 -19 -81 -51 -93 -23 -8 -26 -12 -17 -24 9 -11 9 -20 2 -35 -6
-11 -11 -33 -11 -50 0 -17 -4 -31 -10 -31 -5 0 -9 22 -9 49 2 69 -4 75 -65 67
-131 -18 -135 -18 -149 17 -14 33 -15 100 -3 128 4 10 1 23 -8 32 -20 19 -20
36 -1 57 12 14 7 26 -46 110 l-61 95 7 65 c3 36 16 88 29 115 47 102 222 261
318 288 95 27 127 31 177 18z m-2214 -230 c71 -69 186 -180 254 -249 125 -124
195 -181 209 -168 4 4 -11 22 -33 39 -47 38 -222 205 -274 262 -20 22 -67 72
-105 112 -97 102 -58 99 61 -4 48 -43 113 -98 143 -123 30 -25 68 -57 83 -72
16 -16 34 -28 41 -28 10 0 97 -60 155 -106 6 -5 -43 -74 -51 -74 -5 0 -8 -5
-8 -12 0 -6 -16 -27 -36 -45 l-37 -33 57 -51 c58 -53 70 -85 41 -109 -8 -7
-15 -17 -15 -22 0 -13 -41 -47 -57 -48 -6 0 -13 -6 -16 -12 -2 -8 -8 -9 -13
-4 -5 5 -4 11 4 13 6 3 12 9 12 14 0 17 -27 9 -50 -16 -13 -14 -55 -43 -94
-64 -39 -22 -106 -64 -149 -95 -42 -31 -81 -56 -85 -56 -4 0 39 49 98 108 218
223 232 241 236 288 1 23 10 54 20 69 17 26 17 27 -17 59 -172 164 -255 241
-213 196 76 -81 196 -238 192 -251 -4 -12 -89 66 -322 293 -83 82 -167 159
-186 172 -42 28 -80 78 -80 104 0 11 9 31 21 46 20 26 21 26 52 9 17 -10 90
-74 162 -142z m-2410 112 c-3 -13 -1 -23 3 -23 5 0 21 -17 35 -37 44 -66 78
-105 186 -213 58 -58 106 -108 107 -112 1 -5 2 -12 3 -18 0 -5 16 -17 34 -26
17 -10 27 -19 20 -21 -28 -10 -109 60 -263 226 -67 73 -170 215 -170 235 0 6
11 11 25 11 22 0 25 -4 20 -22z m-3920 -44 c152 -50 190 -80 292 -235 l59 -91
12 -122 12 -123 -30 -44 c-16 -25 -37 -58 -45 -74 -14 -27 -14 -30 3 -39 14
-8 18 -18 14 -43 -3 -18 -10 -36 -15 -40 -6 -4 -11 -26 -12 -49 -1 -43 -27
-76 -43 -54 -4 6 -48 11 -98 12 l-91 2 -11 -52 -11 -52 3 58 c2 31 0 57 -5 57
-9 0 -13 -15 -10 -38 1 -7 -5 -19 -13 -27 -14 -14 -33 -155 -27 -198 3 -25
-16 -21 -25 5 -4 13 -2 24 5 26 14 5 14 50 0 110 -19 75 -29 72 -29 -7 l0 -73
-29 5 c-20 4 -31 2 -35 -8 -3 -8 -14 -15 -25 -15 -15 0 -19 5 -14 16 3 9 -2
52 -13 97 -18 80 -18 81 -26 43 -5 -21 -6 -50 -3 -64 12 -56 13 -77 3 -89 -7
-9 -5 -17 6 -28 12 -13 14 -21 5 -36 -22 -42 -34 -14 -34 82 0 60 -4 99 -12
107 -7 7 -10 20 -7 30 5 13 4 14 -4 3 -16 -22 -30 -4 -38 45 l-7 46 -37 -6
c-21 -3 -46 -9 -56 -13 -13 -5 -16 -3 -11 9 4 12 1 14 -14 11 -18 -5 -19 -2
-13 22 5 20 4 26 -5 21 -6 -4 -11 -16 -11 -27 0 -11 -4 -18 -9 -15 -17 11 -71
-6 -71 -22 0 -13 -3 -13 -12 -4 -8 8 -13 41 -14 80 0 37 -6 77 -12 89 -17 32
-16 49 3 33 11 -9 15 -9 15 -1 0 18 -28 69 -43 78 -15 9 -54 101 -63 150 -12
62 14 168 58 233 52 77 154 172 221 207 120 61 214 65 372 12z m3993 -161 c47
-53 89 -95 93 -93 4 3 13 -3 20 -12 10 -12 10 -14 2 -9 -19 11 -15 -5 6 -28
71 -77 215 -306 200 -320 -2 -2 -58 47 -123 110 -65 62 -122 111 -127 109 -4
-3 -18 9 -30 27 -12 18 -45 58 -73 89 -52 58 -151 194 -162 223 -10 26 19 10
38 -22 37 -58 88 -126 88 -117 0 6 7 -4 16 -21 15 -32 164 -194 178 -194 12 0
-75 124 -125 175 -48 50 -149 191 -149 207 0 23 70 -36 148 -124z"/>
<path d="M838 9365 c-3 -24 -5 -31 -15 -55 -6 -14 -12 -34 -14 -44 -2 -11 -17
-24 -32 -29 -23 -7 -32 -5 -48 11 -10 12 -19 28 -19 35 0 8 -6 20 -14 26 -11
10 -13 4 -8 -35 l5 -46 -32 7 c-22 5 -31 3 -31 -6 0 -7 -14 0 -32 17 l-31 29
23 -34 c13 -18 38 -40 56 -47 19 -8 34 -19 34 -24 0 -33 152 39 179 85 19 33
19 34 1 40 -16 5 -17 10 -8 31 9 18 9 27 0 36 -7 7 -13 8 -14 3z"/>
<path d="M592 8871 c-48 -8 -68 -23 -56 -42 4 -7 8 -23 9 -35 2 -51 74 -98
141 -92 47 3 53 -2 29 -22 -8 -7 -15 -19 -15 -27 0 -13 3 -13 16 -2 11 9 18 9
22 2 11 -17 46 12 38 32 -3 9 -2 13 4 10 10 -6 14 7 11 33 -1 7 3 30 10 49 11
34 10 38 -15 59 -45 39 -102 49 -194 35z"/>
<path d="M1067 8835 c-32 -19 -60 -35 -63 -35 -13 0 -1 30 18 42 20 13 16 14
-35 8 -70 -7 -82 -18 -73 -64 8 -43 52 -80 117 -97 71 -19 111 -7 140 44 32
56 37 77 26 110 -13 39 -57 36 -130 -8z"/>
<path d="M5616 5999 c-19 -16 -61 -68 -93 -115 -32 -47 -58 -82 -59 -77 -2 4
-5 25 -9 46 -3 20 -9 37 -13 37 -4 0 -20 -37 -36 -82 -23 -65 -39 -92 -77
-130 -43 -43 -52 -48 -94 -48 -48 0 -82 14 -152 61 -68 47 -146 62 -297 56
-220 -8 -356 -44 -438 -116 -43 -37 -98 -141 -98 -183 0 -30 -14 -38 -24 -12
-3 9 -9 47 -12 85 -8 85 -24 81 -24 -6 0 -58 3 -68 31 -100 37 -42 47 -44 54
-7 10 49 38 132 45 132 4 0 3 -21 -1 -47 -5 -27 -11 -113 -15 -193 -6 -139 -5
-147 18 -190 26 -51 79 -86 146 -96 23 -3 45 -11 48 -16 13 -21 317 32 404 70
54 24 161 117 210 181 73 96 117 197 119 274 1 26 3 27 51 27 49 0 50 -1 50
-30 0 -50 -30 -231 -42 -253 -6 -11 -27 -38 -47 -60 -48 -52 -52 -60 -57 -118
-2 -28 -18 -82 -35 -121 -53 -121 -31 -205 69 -269 25 -16 40 -29 33 -29 -27
0 -82 34 -116 71 -38 42 -45 43 -18 2 24 -36 91 -83 119 -83 37 0 73 21 95 56
19 32 20 47 18 366 -1 279 2 346 16 413 19 90 30 115 50 115 19 0 38 -65 31
-105 -4 -18 -2 -55 4 -82 11 -47 80 -207 87 -200 2 2 -10 34 -27 70 -38 85
-59 195 -42 231 16 35 33 33 26 -3 -12 -58 73 -198 187 -307 78 -74 128 -107
205 -132 33 -11 89 -31 125 -45 79 -30 273 -62 323 -53 45 9 91 47 118 100 46
87 33 442 -20 540 -35 65 -76 88 -211 117 -85 19 -138 23 -266 24 -177 0 -160
5 -325 -87 -77 -43 -116 -52 -114 -25 3 27 -14 20 -32 -15 l-17 -32 -23 27
c-22 26 -22 29 -10 72 17 56 81 159 157 253 62 75 64 93 5 41z"/>
<path d="M5394 5286 c-3 -14 -4 -125 -2 -248 l4 -223 32 -75 c18 -41 40 -82
49 -92 14 -16 18 -15 57 9 89 55 126 106 126 171 0 52 -21 99 -64 144 -20 21
-38 50 -42 65 -10 47 -12 49 -13 12 -1 -27 9 -52 34 -89 19 -29 35 -59 35 -68
0 -12 -5 -9 -17 8 -9 14 -23 30 -29 35 -21 17 -54 79 -54 101 0 12 11 37 24
57 l25 36 -67 87 c-37 48 -72 89 -79 92 -7 2 -15 -8 -19 -22z"/>
<path d="M9620 6618 c0 -12 -3 -18 -6 -15 -4 4 -15 -8 -24 -26 -23 -44 -59
-47 -97 -10 -15 15 -39 37 -52 48 l-24 20 6 -58 c5 -50 3 -57 -11 -55 -9 2
-18 -5 -20 -14 -3 -18 43 -48 74 -48 36 0 152 62 163 86 14 31 15 94 1 94 -5
0 -10 -10 -10 -22z"/>
<path d="M9207 6333 c-4 -3 -7 -49 -7 -102 0 -55 4 -90 9 -83 6 10 11 5 21
-17 6 -16 10 -36 7 -43 -7 -22 11 -45 53 -67 52 -27 108 -35 143 -22 21 8 26
8 21 0 -4 -7 -2 -10 5 -8 7 3 11 7 9 11 -2 3 7 17 18 30 50 53 35 109 -33 127
-87 22 -150 33 -169 28 -12 -3 -6 -6 16 -7 l35 -2 -30 -8 c-65 -16 -72 -13
-84 36 -7 26 -9 66 -5 90 6 43 4 51 -9 37z"/>
<path d="M9673 6134 c-12 -13 -23 -34 -23 -48 0 -13 -6 -26 -12 -29 -9 -3 -8
-10 6 -26 21 -23 42 -29 30 -8 -4 6 1 5 12 -4 24 -20 87 -43 78 -28 -4 8 0 7
14 0 65 -35 152 21 152 97 0 59 -16 67 -133 68 -93 2 -102 0 -124 -22z"/>
<path d="M9560 6004 c0 -5 -7 -19 -15 -30 -8 -10 -14 -14 -13 -9 2 6 -1 12 -7
15 -12 6 -55 -69 -48 -86 2 -6 0 -15 -6 -19 -6 -3 -11 -23 -10 -43 l1 -37 13
35 c12 30 14 32 14 11 l1 -25 22 24 c13 14 25 43 29 70 l6 45 2 -45 c1 -25 5
-51 9 -58 13 -20 41 -3 51 32 9 29 9 29 11 6 1 -14 2 -29 1 -33 -1 -5 9 -17
21 -27 22 -17 22 -20 6 -32 -19 -14 -15 -63 4 -52 5 3 7 12 4 20 -3 8 -1 14 4
14 16 0 11 108 -6 143 -22 43 -24 44 -34 27 -8 -12 -10 -11 -10 6 0 25 -29 68
-30 44 0 -13 -1 -13 -10 0 -5 8 -10 10 -10 4z"/>
<path d="M725 6527 c-11 -23 -26 -41 -33 -39 -8 1 -11 -2 -7 -8 5 -8 13 -6 26
6 21 19 23 13 10 -34 -14 -49 7 -66 73 -57 28 4 61 8 73 8 16 1 27 12 38 37 9
19 20 42 24 51 5 8 7 28 4 42 -4 21 -8 25 -19 16 -7 -6 -10 -17 -7 -25 3 -8
-1 -14 -11 -14 -10 0 -13 -6 -10 -15 4 -9 0 -15 -10 -15 -8 0 -18 -11 -22 -25
-7 -29 -12 -30 -38 -10 -16 12 -22 12 -28 2 -4 -7 -8 11 -8 41 0 33 -6 59 -14
68 -8 8 -16 14 -18 14 -2 -1 -12 -20 -23 -43z"/>
<path d="M1050 6082 c-30 -8 -71 -42 -64 -54 3 -4 0 -17 -6 -29 -10 -18 -8
-25 17 -51 42 -44 75 -58 140 -58 61 1 75 7 111 54 22 29 30 98 14 122 -10 15
-85 27 -76 12 5 -8 -1 -9 -17 -4 -39 12 -92 15 -119 8z"/>
<path d="M605 6063 c-35 -9 -45 -24 -45 -68 0 -37 5 -48 35 -74 29 -25 45 -31
81 -31 60 0 106 21 138 62 29 39 30 44 16 61 -6 7 -16 20 -24 31 -10 15 -28
19 -97 21 -46 2 -93 1 -104 -2z"/>
<path d="M867 5890 c-14 -23 -17 -49 -15 -129 1 -56 5 -96 10 -89 4 7 8 29 8
48 1 40 28 109 29 74 1 -11 7 -28 14 -38 13 -18 14 -18 21 -1 6 16 8 16 26 -5
27 -31 35 -20 35 45 0 52 -28 112 -49 106 -5 -2 -13 3 -17 11 -7 11 -11 10
-19 -2 -8 -11 -12 -12 -18 -3 -6 9 -13 4 -25 -17z"/>
<path d="M9689 4773 c-1 -10 0 -28 1 -40 1 -13 -7 -26 -20 -33 -16 -8 -19 -15
-11 -23 7 -7 3 -14 -16 -24 -36 -19 -64 -16 -70 6 -3 11 -11 17 -19 14 -8 -3
-16 5 -20 24 -15 62 -49 67 -38 5 4 -20 11 -43 17 -49 7 -9 5 -13 -6 -13 -25
0 -10 -26 22 -40 19 -8 35 -8 55 0 15 5 42 10 60 10 34 0 76 23 64 36 -4 4 0
13 10 20 11 9 13 13 4 14 -9 0 -11 7 -7 20 3 11 2 20 -3 20 -5 0 -7 13 -4 29
2 16 -1 32 -7 35 -6 4 -11 0 -12 -11z"/>
<path d="M9322 4480 c-1 -20 -8 -58 -15 -86 -13 -49 -12 -53 16 -102 16 -29
33 -52 38 -52 4 0 13 -17 19 -39 23 -87 77 -116 152 -83 57 25 112 86 98 110
-21 38 -29 43 -85 57 -73 19 -161 17 -178 -4 -9 -12 -9 -13 0 -7 9 5 11 2 7
-8 -3 -9 -10 -16 -14 -16 -14 0 -23 44 -30 155 -3 61 -7 94 -8 75z"/>
<path d="M9820 4262 c-21 -10 -44 -34 -58 -59 l-22 -41 62 -42 c60 -40 66 -42
127 -38 76 5 95 22 105 94 8 58 1 67 -73 88 -70 20 -98 20 -141 -2z"/>
<path d="M9690 954 c-36 -11 -48 -21 -57 -45 -13 -35 -7 -56 30 -97 39 -42
173 -60 221 -29 60 39 76 109 36 152 -13 14 -31 24 -39 24 -13 -1 -12 -2 2 -6
9 -2 17 -9 17 -14 0 -12 -4 -11 -35 3 -18 8 -22 14 -13 20 22 13 -114 7 -162
-8z"/>
<path d="M9263 949 c-18 -5 -40 -20 -49 -34 -14 -21 -14 -26 1 -54 25 -49 81
-99 119 -106 22 -5 44 -1 64 9 36 19 82 65 82 83 0 20 -44 81 -67 92 -34 16
-114 21 -150 10z"/>
<path d="M680 1281 c0 -6 7 -11 16 -11 11 0 14 -5 10 -16 -3 -9 -6 -29 -6 -45
0 -22 -5 -29 -20 -29 -27 0 -27 -38 1 -48 12 -5 46 -2 80 6 45 11 63 21 73 40
8 16 16 21 20 13 13 -21 25 -11 37 29 10 32 10 43 0 53 -10 9 -15 8 -27 -8 -8
-11 -12 -25 -10 -32 3 -7 -1 -13 -9 -13 -8 0 -19 -9 -25 -20 -15 -27 -40 -26
-40 3 0 17 -2 19 -10 7 -12 -19 -30 -3 -44 42 -10 30 -46 53 -46 29z"/>
<path d="M585 832 c-5 -4 -18 -17 -28 -29 -17 -20 -17 -23 -2 -53 9 -18 18
-42 21 -53 11 -58 93 -67 186 -21 46 23 73 64 49 72 -9 3 -9 8 0 19 15 18 7
24 -69 53 -52 20 -138 27 -157 12z"/>
<path d="M1085 823 c-38 -8 -88 -15 -110 -17 -22 -2 -43 -4 -47 -5 -15 -2 -8
-21 8 -21 13 0 15 -7 11 -30 -4 -20 -2 -30 5 -30 9 0 9 -3 1 -11 -9 -9 -7 -16
5 -29 50 -52 166 -68 215 -30 31 24 37 25 37 3 0 -12 3 -14 10 -7 18 18 24
146 8 165 -19 24 -64 28 -143 12z"/>
<path d="M0 7819 c0 -109 3 -139 12 -132 7 4 37 24 67 45 30 21 60 38 68 38 7
0 13 5 13 11 0 21 -134 179 -152 179 -4 0 -8 -63 -8 -141z"/>
<path d="M10189 7738 c-23 -29 -48 -68 -56 -87 -14 -34 -14 -34 30 -80 25 -25
52 -59 60 -76 15 -28 16 -21 17 133 0 89 -2 162 -5 162 -2 0 -23 -24 -46 -52z"/>
<path d="M88 7702 l-87 -67 0 -293 -1 -293 46 38 c25 21 50 37 56 35 5 -1 7 6
4 16 -7 22 50 84 85 92 13 3 29 16 35 28 6 12 24 34 40 49 19 18 24 28 16 31
-11 3 -10 7 1 21 8 9 17 29 21 44 8 33 12 34 -79 -29 -141 -98 -189 -99 -99
-4 53 56 88 105 98 138 13 41 -17 24 -81 -46 -34 -38 -68 -69 -76 -69 -12 0
-11 5 5 27 20 28 163 160 172 160 3 0 6 -7 6 -16 0 -8 4 -12 10 -9 6 3 7 -1 4
-9 -8 -21 25 -21 52 -1 15 11 16 14 3 15 -8 0 -20 -4 -27 -10 -7 -5 -6 -3 2 6
22 26 3 79 -50 137 -26 29 -52 57 -58 64 -8 9 -32 -4 -98 -55z"/>
<path d="M837 7564 c-3 -3 -3 -13 0 -21 4 -9 -1 -21 -9 -27 -22 -16 -56 -79
-50 -94 3 -10 7 -10 18 -1 11 9 18 6 36 -16 l21 -27 18 23 c16 20 19 21 19 6
0 -25 39 -41 73 -28 18 7 25 15 21 26 -4 9 -13 14 -21 11 -10 -4 -22 12 -40
52 -34 76 -68 114 -86 96z"/>
<path d="M9662 7512 c-15 -12 -21 -24 -16 -35 5 -13 -2 -21 -29 -32 -24 -10
-36 -22 -39 -40 -6 -30 7 -42 27 -25 11 9 20 8 41 -9 28 -22 64 -28 64 -11 0
5 7 7 16 3 14 -5 15 -3 4 18 -7 13 -17 27 -23 30 -5 4 -6 16 -2 28 6 19 12 21
38 15 l32 -6 -24 26 c-23 25 -49 37 -36 17 3 -5 1 -13 -5 -16 -7 -4 -10 3 -8
21 4 33 -10 39 -40 16z"/>
<path d="M586 7485 c3 -22 1 -58 -4 -80 -5 -24 -5 -51 0 -67 8 -22 5 -33 -16
-61 l-26 -34 26 -12 c21 -9 30 -8 53 8 15 11 33 31 40 44 12 23 11 30 -9 61
-26 43 -14 49 14 7 11 -15 28 -33 38 -40 16 -10 18 -8 18 21 0 18 4 39 9 47
10 16 3 51 -11 51 -5 0 -7 -9 -3 -19 8 -27 -16 -40 -29 -16 -6 11 -28 35 -50
54 -21 20 -42 45 -47 56 -5 13 -6 7 -3 -20z"/>
<path d="M9940 7471 c0 -6 20 -39 44 -74 24 -35 46 -73 48 -83 2 -11 9 -18 16
-17 6 2 30 -20 54 -47 24 -28 53 -57 66 -66 22 -14 22 -14 17 17 -3 18 -8 36
-11 41 -10 16 -21 108 -13 108 5 0 9 -4 9 -8 0 -8 9 -21 50 -72 l19 -25 1 28
c0 16 -5 37 -10 48 -13 23 -59 47 -81 42 -8 -2 -24 5 -34 17 -21 24 -35 26
-35 5 0 -8 -4 -15 -9 -15 -5 0 -14 7 -21 15 -7 8 -21 15 -32 15 -23 0 -48 23
-48 44 0 12 5 14 25 6 34 -13 31 -4 -5 15 -33 17 -50 19 -50 6z"/>
<path d="M10192 2510 c-32 -44 -42 -68 -42 -98 0 -21 -5 -43 -11 -49 -11 -11
34 -43 80 -58 21 -6 21 -4 21 129 0 75 -1 136 -3 136 -2 0 -22 -27 -45 -60z"/>
<path d="M10036 2318 c-3 -13 -19 -32 -36 -43 -16 -11 -30 -26 -30 -32 0 -22
21 -14 44 14 l21 28 6 -35 5 -35 11 35 10 35 18 -40 c11 -25 18 -65 18 -105 1
-51 5 -68 19 -78 10 -7 18 -18 18 -25 0 -6 21 -30 48 -54 43 -39 47 -41 50
-21 3 14 -13 38 -52 77 l-56 56 12 62 11 61 -46 53 c-26 30 -47 57 -47 61 0
18 -18 6 -24 -14z"/>
</g>
</svg>
